<svg width="25" height="25" viewBox="0 0 25 25" fill="none" xmlns="http://www.w3.org/2000/svg">
<path d="M8.98009 18.0713C8.609 17.8564 8.13048 17.9834 7.91564 18.3643L4.79064 23.833C4.5758 24.209 4.70763 24.6875 5.08361 24.8975C5.20568 24.9658 5.33751 25 5.46935 25C5.7379 25 6.00158 24.8584 6.14806 24.6045L9.27306 19.1357C9.4879 18.7646 9.35607 18.2861 8.98009 18.0713ZM13.6676 18.0713C13.2965 17.8564 12.818 17.9834 12.6031 18.3643L9.47814 23.833C9.2633 24.209 9.39513 24.6875 9.77111 24.8975C9.89318 24.9658 10.025 25 10.1568 25C10.4254 25 10.6891 24.8584 10.8356 24.6045L13.9606 19.1357C14.1754 18.7646 14.0436 18.2861 13.6676 18.0713ZM4.29259 18.0713C3.9215 17.8564 3.44298 17.9834 3.22814 18.3643L0.103139 23.833C-0.111705 24.209 0.020131 24.6875 0.396108 24.8975C0.518178 24.9658 0.650014 25 0.78185 25C1.0504 25 1.31408 24.8584 1.46056 24.6045L4.58556 19.1357C4.8004 18.7646 4.66857 18.2861 4.29259 18.0713ZM23.0426 18.0713C22.6715 17.8564 22.193 17.9834 21.9781 18.3643L18.8531 23.833C18.6383 24.209 18.7701 24.6875 19.1461 24.8975C19.2682 24.9658 19.4 25 19.5318 25C19.8004 25 20.0641 24.8584 20.2106 24.6045L23.3356 19.1357C23.5504 18.7646 23.4186 18.2861 23.0426 18.0713ZM18.3551 18.0713C17.984 17.8564 17.5055 17.9834 17.2906 18.3643L14.1656 23.833C13.9508 24.209 14.0826 24.6875 14.4586 24.8975C14.5807 24.9658 14.7125 25 14.8443 25C15.1129 25 15.3766 24.8584 15.5231 24.6045L18.6481 19.1357C18.8629 18.7646 18.7311 18.2861 18.3551 18.0713ZM20.3131 6.25C20.2838 6.25 20.2594 6.25977 20.235 6.25977C20.2887 6.00586 20.3131 5.74219 20.3131 5.46875C20.3131 3.31055 18.5651 1.5625 16.4068 1.5625C15.2057 1.5625 14.1461 2.11426 13.4283 2.96875C12.5201 1.21094 10.7086 0 8.59435 0C5.57677 0 3.1256 2.44629 3.1256 5.46875C3.1256 5.8252 3.16466 6.16699 3.22814 6.50391C1.35802 7.11914 0.000599705 8.8623 0.000599705 10.9375C0.000599705 13.5254 2.10021 15.625 4.6881 15.625H20.3131C22.901 15.625 25.0006 13.5254 25.0006 10.9375C25.0006 8.34961 22.901 6.25 20.3131 6.25Z" fill="white"/>
</svg>
