<svg width="22" height="25" viewBox="0 0 22 25" fill="none" xmlns="http://www.w3.org/2000/svg">
<path d="M21.5007 16.8555L19.8503 15.9033L21.1198 15.5615C21.5202 15.4541 21.7595 15.0391 21.652 14.6387L21.4567 13.9111C21.3493 13.5107 20.9343 13.2715 20.5339 13.3789L17.0768 14.3066L13.9567 12.5L17.072 10.6982L20.529 11.626C20.9294 11.7334 21.3444 11.4941 21.4518 11.0937L21.6472 10.3662C21.7546 9.96582 21.5153 9.55078 21.1149 9.44336L19.8454 9.10156L21.4958 8.14941C21.8571 7.93945 21.9792 7.48047 21.7741 7.11914L21.0173 5.81055C20.8073 5.44922 20.3483 5.32715 19.987 5.53223L18.3366 6.48438L18.6784 5.21484C18.7858 4.81445 18.5466 4.39941 18.1462 4.29199L17.4186 4.09668C17.0183 3.98926 16.6032 4.22852 16.4958 4.62891L15.5681 8.08594L12.5017 9.85352V6.06934L15.1237 3.44727C15.4265 3.14453 15.4265 2.64648 15.1237 2.34375L14.572 1.79199C14.2692 1.48926 13.7712 1.48926 13.4685 1.79199L12.5017 2.75391V0.78125C12.5017 0.351562 12.1501 0 11.7204 0H10.1579C9.72822 0 9.37665 0.351562 9.37665 0.78125V2.75391L8.41474 1.79199C8.11201 1.48926 7.61396 1.48926 7.31122 1.79199L6.75458 2.34375C6.44697 2.64648 6.44697 3.14453 6.75458 3.44727L9.37665 6.06934V9.85352L6.31025 8.08594L5.38251 4.62891C5.27509 4.22852 4.86005 3.98926 4.45966 4.09668L3.73212 4.29199C3.33173 4.39941 3.09247 4.81445 3.1999 5.21484L3.54169 6.48438L1.8913 5.53223C1.52997 5.32227 1.07099 5.44922 0.861029 5.81055L0.104193 7.11426C-0.105768 7.47559 0.0211855 7.93457 0.382514 8.14453L2.0329 9.09668L0.763373 9.43848C0.3581 9.5459 0.118842 9.96094 0.226264 10.3662L0.421576 11.0937C0.528998 11.4941 0.944037 11.7334 1.34443 11.626L4.80146 10.6982L7.91669 12.5L4.80146 14.3018L1.34443 13.374C0.944037 13.2666 0.528998 13.5059 0.421576 13.9062L0.226264 14.6338C0.118842 15.0342 0.3581 15.4492 0.75849 15.5566L2.02802 15.8984L0.377631 16.8555C0.0163027 17.0654 -0.105768 17.5244 0.0993105 17.8857L0.856146 19.1943C1.06611 19.5557 1.52509 19.6777 1.88642 19.4727L3.53681 18.5205L3.19501 19.79C3.08759 20.1904 3.32685 20.6055 3.72724 20.7129L4.45478 20.9082C4.85517 21.0156 5.27021 20.7764 5.37763 20.376L6.30537 16.9189L9.37177 15.1514V18.9355L6.7497 21.5576C6.44208 21.8604 6.44208 22.3584 6.7497 22.6611L7.30146 23.2129C7.60419 23.5156 8.10224 23.5156 8.40497 23.2129L9.36689 22.251V24.2188C9.36689 24.6484 9.71845 25 10.1481 25H11.7106C12.1403 25 12.4919 24.6484 12.4919 24.2188V22.2461L13.4538 23.208C13.7565 23.5107 14.2546 23.5107 14.5573 23.208L15.1091 22.6562C15.4118 22.3535 15.4118 21.8555 15.1091 21.5527L12.5017 18.9307V15.1465L15.5681 16.9141L16.4958 20.3711C16.6032 20.7715 17.0183 21.0107 17.4186 20.9033L18.1462 20.708C18.5466 20.6006 18.7858 20.1855 18.6784 19.7852L18.3366 18.5156L19.987 19.4678C20.3483 19.6777 20.8073 19.5508 21.0173 19.1895L21.7741 17.8809C21.9841 17.5244 21.862 17.0605 21.5007 16.8555Z" fill="white"/>
</svg>
