<svg width="25" height="23" viewBox="0 0 25 23" fill="none" xmlns="http://www.w3.org/2000/svg">
<path d="M22.1571 9.78733C21.8576 8.17274 20.4514 6.94444 18.75 6.94444C18.2161 6.94444 17.7127 7.07465 17.2613 7.29167C16.5061 6.24566 15.2821 5.55556 13.8889 5.55556C11.5885 5.55556 9.72222 7.42187 9.72222 9.72222C9.72222 9.74392 9.7309 9.76997 9.7309 9.79167C8.14236 10.1128 6.94444 11.5104 6.94444 13.1944C6.94444 15.1128 8.49826 16.6667 10.4167 16.6667H21.5278C23.4462 16.6667 25 15.1128 25 13.1944C25 11.4931 23.776 10.0825 22.1571 9.78733ZM5.38628 11.2804C3.76302 9.65712 3.76302 7.01389 5.38628 5.38628C6.88802 3.88455 9.25347 3.78906 10.8854 5.0651C11.7535 4.50521 12.7778 4.16667 13.8889 4.16667C13.9193 4.16667 13.9453 4.17535 13.9757 4.17535L14.362 3.01649C14.5095 2.57378 14.0885 2.15712 13.6458 2.30469L10.3776 3.3941L8.83681 0.3125C8.62847 -0.104167 8.03385 -0.104167 7.82552 0.3125L6.28472 3.3941L3.01649 2.30469C2.57378 2.15712 2.15712 2.57812 2.30469 3.02083L3.3941 6.28906L0.3125 7.82986C-0.104167 8.03819 -0.104167 8.63281 0.3125 8.84115L3.3941 10.3819L2.30469 13.6502C2.15712 14.0929 2.57812 14.5095 3.02083 14.3663L5.59028 13.5113C5.5816 13.4071 5.5599 13.3073 5.5599 13.1988C5.5599 12.6562 5.65972 12.1354 5.82899 11.6406C5.67274 11.5234 5.52083 11.4149 5.38628 11.2804ZM8.4158 8.76302C8.60243 7.69965 9.10156 6.74913 9.80035 5.98524C9.375 5.71615 8.87153 5.55556 8.33333 5.55556C6.80122 5.55556 5.55556 6.80122 5.55556 8.33333C5.55556 9.14496 5.91146 9.86979 6.47135 10.3776C6.96181 9.6875 7.62587 9.12326 8.4158 8.76302ZM22.7648 18.1467C22.4349 17.9601 22.0095 18.0686 21.8186 18.4071L20.23 21.1849C20.0391 21.5191 20.1562 21.9401 20.4905 22.1311C20.599 22.1918 20.7161 22.2222 20.8333 22.2222C21.072 22.2222 21.3064 22.0964 21.4366 21.8707L23.0252 19.0929C23.2118 18.7587 23.099 18.3377 22.7648 18.1467ZM18.5981 18.1467C18.2682 17.9601 17.8429 18.0686 17.6519 18.4071L16.0634 21.1849C15.8724 21.5191 15.9896 21.9401 16.3238 22.1311C16.4323 22.1918 16.5495 22.2222 16.6667 22.2222C16.9054 22.2222 17.1398 22.0964 17.27 21.8707L18.8585 19.0929C19.0451 18.7587 18.9323 18.3377 18.5981 18.1467ZM14.4314 18.1467C14.1016 17.9601 13.6762 18.0686 13.4852 18.4071L11.8967 21.1849C11.7057 21.5191 11.8229 21.9401 12.1571 22.1311C12.2656 22.1918 12.3828 22.2222 12.5 22.2222C12.7387 22.2222 12.9731 22.0964 13.1033 21.8707L14.6918 19.0929C14.8785 18.7587 14.7656 18.3377 14.4314 18.1467ZM10.2648 18.1467C9.9349 17.9601 9.50955 18.0686 9.31858 18.4071L7.73003 21.1849C7.53906 21.5191 7.65625 21.9401 7.99045 22.1311C8.09896 22.1918 8.21615 22.2222 8.33333 22.2222C8.57205 22.2222 8.80642 22.0964 8.93663 21.8707L10.5252 19.0929C10.7118 18.7587 10.599 18.3377 10.2648 18.1467Z" fill="white"/>
</svg>
