<svg width="18" height="16" viewBox="0 0 18 16" fill="none" xmlns="http://www.w3.org/2000/svg">
<path d="M11.25 10.8571C11.25 11.1729 10.9983 11.4286 10.6875 11.4286H7.3125C7.00172 11.4286 6.75 11.1729 6.75 10.8571V9.14286H0V14.2857C0 15.2 0.7875 16 1.6875 16H16.3125C17.2125 16 18 15.2 18 14.2857V9.14286H11.25V10.8571ZM16.3125 3.42857H13.5V1.71429C13.5 0.8 12.7125 0 11.8125 0H6.1875C5.2875 0 4.5 0.8 4.5 1.71429V3.42857H1.6875C0.7875 3.42857 0 4.22857 0 5.14286V8H18V5.14286C18 4.22857 17.2125 3.42857 16.3125 3.42857ZM11.25 3.42857H6.75V2.28571H11.25V3.42857Z" fill="#D9D9D9"/>
</svg>
