<svg width="18" height="14" viewBox="0 0 18 14" fill="none" xmlns="http://www.w3.org/2000/svg">
<path d="M17.55 11.375H10.7308C10.71 11.9167 10.3171 12.25 9.81 12.25H8.1C7.57434 12.25 7.17131 11.7723 7.17834 11.375H0.45C0.2025 11.375 0 11.5719 0 11.8125V12.25C0 13.2125 0.81 14 1.8 14H16.2C17.19 14 18 13.2125 18 12.25V11.8125C18 11.5719 17.7975 11.375 17.55 11.375ZM16.2 1.3125C16.2 0.590625 15.5925 0 14.85 0H3.15C2.4075 0 1.8 0.590625 1.8 1.3125V10.5H16.2V1.3125ZM14.4 8.75H3.6V1.75H14.4V8.75Z" fill="#D9D9D9"/>
</svg>
