<svg width="18" height="16" viewBox="0 0 18 16" fill="none" xmlns="http://www.w3.org/2000/svg">
<path d="M13.2855 2.63929L17.6027 7.025C17.8559 7.28214 18 7.63571 18 8C18 8.36429 17.8559 8.71786 17.6027 8.975L13.2855 13.3607C13.0605 13.5893 12.7582 13.7143 12.4418 13.7143C11.7844 13.7143 11.25 13.1714 11.25 12.5036V10.2857H6.75C6.12773 10.2857 5.625 9.775 5.625 9.14286V6.85714C5.625 6.225 6.12773 5.71429 6.75 5.71429H11.25V3.49643C11.25 2.82857 11.7844 2.28571 12.4418 2.28571C12.7582 2.28571 13.0605 2.41429 13.2855 2.63929ZM5.625 2.28571H3.375C2.75273 2.28571 2.25 2.79643 2.25 3.42857V12.5714C2.25 13.2036 2.75273 13.7143 3.375 13.7143H5.625C6.24727 13.7143 6.75 14.225 6.75 14.8571C6.75 15.4893 6.24727 16 5.625 16H3.375C1.51172 16 0 14.4643 0 12.5714V3.42857C0 1.53571 1.51172 0 3.375 0H5.625C6.24727 0 6.75 0.510714 6.75 1.14286C6.75 1.775 6.24727 2.28571 5.625 2.28571Z" fill="#D9D9D9"/>
</svg>
