<svg width="18" height="18" viewBox="0 0 18 18" fill="none" xmlns="http://www.w3.org/2000/svg">
<path d="M17.6351 3.23824L9.39516 0.0717177C9.14052 -0.0239059 8.85983 -0.0239059 8.6052 0.0717177L0.364922 3.23824C0.257731 3.27846 0.165363 3.35043 0.100157 3.44453C0.0349498 3.53863 8.58773e-06 3.65039 0 3.76488L0 5.0625C0 5.37328 0.251719 5.625 0.5625 5.625H17.4375C17.7483 5.625 18 5.37328 18 5.0625V3.76488C18 3.53039 17.8545 3.32051 17.6351 3.23824ZM2.25 6.75V12.375H1.6875C1.37672 12.375 1.125 12.6267 1.125 12.9375V14.625H16.875V12.9375C16.875 12.6267 16.6233 12.375 16.3125 12.375H15.75V6.75H13.5V12.375H10.125V6.75H7.875V12.375H4.5V6.75H2.25ZM17.4375 15.75H0.5625C0.251719 15.75 0 16.0017 0 16.3125V17.4375C0 17.7483 0.251719 18 0.5625 18H17.4375C17.7483 18 18 17.7483 18 17.4375V16.3125C18 16.0017 17.7483 15.75 17.4375 15.75Z" fill="#60BAA1"/>
</svg>
