<svg width="18" height="18" viewBox="0 0 18 18" fill="none" xmlns="http://www.w3.org/2000/svg">
<path d="M0.653894 0.865206L4.31007 0.0214735C4.70733 -0.0699308 5.11513 0.137487 5.27685 0.510135L6.96431 4.44755C7.11197 4.79208 7.01353 5.19636 6.72174 5.43191L4.59131 7.17562C5.85691 9.87205 8.0682 12.115 10.8209 13.4052L12.5646 11.2748C12.8036 10.983 13.2044 10.8845 13.5489 11.0322L17.4864 12.7196C17.8625 12.8849 18.0699 13.2927 17.9785 13.6899L17.1348 17.3461C17.0469 17.7258 16.7094 18 16.3122 18C7.30884 18 -7.07791e-07 10.7052 -7.07791e-07 1.68784C-7.07791e-07 1.2941 0.270698 0.953094 0.653894 0.865206Z" fill="#D9D9D9"/>
</svg>
