<svg width="14" height="18" viewBox="0 0 14 18" fill="none" xmlns="http://www.w3.org/2000/svg">
<path d="M2.25 0C1.00898 0 0 1.00898 0 2.25V15.75C0 16.991 1.00898 18 2.25 18H11.25C12.491 18 13.5 16.991 13.5 15.75V5.625H9C8.37773 5.625 7.875 5.12227 7.875 4.5V0H2.25ZM9 0V4.5H13.5L9 0ZM3.375 1.6875C3.375 1.37812 3.62812 1.125 3.9375 1.125H5.0625C5.37188 1.125 5.625 1.37812 5.625 1.6875C5.625 1.99688 5.37188 2.25 5.0625 2.25H3.9375C3.62812 2.25 3.375 1.99688 3.375 1.6875ZM3.375 3.9375C3.375 3.62812 3.62812 3.375 3.9375 3.375H5.0625C5.37188 3.375 5.625 3.62812 5.625 3.9375C5.625 4.24688 5.37188 4.5 5.0625 4.5H3.9375C3.62812 4.5 3.375 4.24688 3.375 3.9375ZM3.375 6.1875C3.375 5.87812 3.62812 5.625 3.9375 5.625H5.0625C5.37188 5.625 5.625 5.87812 5.625 6.1875C5.625 6.49688 5.37188 6.75 5.0625 6.75H3.9375C3.62812 6.75 3.375 6.49688 3.375 6.1875ZM3.15352 8.71172C3.28359 8.21953 3.73008 7.875 4.23984 7.875H4.76016C5.26992 7.875 5.71641 8.21602 5.84648 8.71172L6.67266 11.8125C6.72188 12.0023 6.74648 12.1957 6.74648 12.3891C6.74648 13.6266 5.73398 14.6285 4.49648 14.6285C3.25898 14.6285 2.24648 13.6266 2.24648 12.3891C2.24648 12.1957 2.27109 11.9988 2.32031 11.8125L3.14648 8.71172H3.15352ZM3.9375 11.8125C3.62812 11.8125 3.375 12.0656 3.375 12.375C3.375 12.6844 3.62812 12.9375 3.9375 12.9375H5.0625C5.37188 12.9375 5.625 12.6844 5.625 12.375C5.625 12.0656 5.37188 11.8125 5.0625 11.8125H3.9375Z" fill="#D9D9D9"/>
</svg>
