<svg width="24" height="19" viewBox="0 0 24 19" fill="none" xmlns="http://www.w3.org/2000/svg">
<path d="M2.66667 0C1.19583 0 0 1.21719 0 2.71429V16.2857C0 17.7828 1.19583 19 2.66667 19H21.3333C22.8042 19 24 17.7828 24 16.2857V2.71429C24 1.21719 22.8042 0 21.3333 0H2.66667ZM6 10.8571H8.66667C10.5083 10.8571 12 12.3754 12 14.25C12 14.6232 11.7 14.9286 11.3333 14.9286H3.33333C2.96667 14.9286 2.66667 14.6232 2.66667 14.25C2.66667 12.3754 4.15833 10.8571 6 10.8571ZM4.66667 6.78571C4.66667 6.06584 4.94762 5.37545 5.44772 4.86642C5.94781 4.3574 6.62609 4.07143 7.33333 4.07143C8.04058 4.07143 8.71885 4.3574 9.21895 4.86642C9.71905 5.37545 10 6.06584 10 6.78571C10 7.50559 9.71905 8.19598 9.21895 8.705C8.71885 9.21403 8.04058 9.5 7.33333 9.5C6.62609 9.5 5.94781 9.21403 5.44772 8.705C4.94762 8.19598 4.66667 7.50559 4.66667 6.78571ZM15.3333 5.42857H20.6667C21.0333 5.42857 21.3333 5.73393 21.3333 6.10714C21.3333 6.48036 21.0333 6.78571 20.6667 6.78571H15.3333C14.9667 6.78571 14.6667 6.48036 14.6667 6.10714C14.6667 5.73393 14.9667 5.42857 15.3333 5.42857ZM15.3333 8.14286H20.6667C21.0333 8.14286 21.3333 8.44821 21.3333 8.82143C21.3333 9.19464 21.0333 9.5 20.6667 9.5H15.3333C14.9667 9.5 14.6667 9.19464 14.6667 8.82143C14.6667 8.44821 14.9667 8.14286 15.3333 8.14286ZM15.3333 10.8571H20.6667C21.0333 10.8571 21.3333 11.1625 21.3333 11.5357C21.3333 11.9089 21.0333 12.2143 20.6667 12.2143H15.3333C14.9667 12.2143 14.6667 11.9089 14.6667 11.5357C14.6667 11.1625 14.9667 10.8571 15.3333 10.8571Z" fill="#83C5BE"/>
</svg>
