<svg width="18" height="24" viewBox="0 0 18 24" fill="none" xmlns="http://www.w3.org/2000/svg">
<path d="M3 0C1.34531 0 0 1.34531 0 3V21C0 22.6547 1.34531 24 3 24H15C16.6547 24 18 22.6547 18 21V7.5H12C11.1703 7.5 10.5 6.82969 10.5 6V0H3ZM12 0V6H18L12 0ZM4.5 2.25C4.5 1.8375 4.8375 1.5 5.25 1.5H6.75C7.1625 1.5 7.5 1.8375 7.5 2.25C7.5 2.6625 7.1625 3 6.75 3H5.25C4.8375 3 4.5 2.6625 4.5 2.25ZM4.5 5.25C4.5 4.8375 4.8375 4.5 5.25 4.5H6.75C7.1625 4.5 7.5 4.8375 7.5 5.25C7.5 5.6625 7.1625 6 6.75 6H5.25C4.8375 6 4.5 5.6625 4.5 5.25ZM4.5 8.25C4.5 7.8375 4.8375 7.5 5.25 7.5H6.75C7.1625 7.5 7.5 7.8375 7.5 8.25C7.5 8.6625 7.1625 9 6.75 9H5.25C4.8375 9 4.5 8.6625 4.5 8.25ZM4.20469 11.6156C4.37812 10.9594 4.97344 10.5 5.65312 10.5H6.34687C7.02656 10.5 7.62188 10.9547 7.79531 11.6156L8.89688 15.75C8.9625 16.0031 8.99531 16.2609 8.99531 16.5187C8.99531 18.1687 7.64531 19.5047 5.99531 19.5047C4.34531 19.5047 2.99531 18.1687 2.99531 16.5187C2.99531 16.2609 3.02813 15.9984 3.09375 15.75L4.19531 11.6156H4.20469ZM5.25 15.75C4.8375 15.75 4.5 16.0875 4.5 16.5C4.5 16.9125 4.8375 17.25 5.25 17.25H6.75C7.1625 17.25 7.5 16.9125 7.5 16.5C7.5 16.0875 7.1625 15.75 6.75 15.75H5.25Z" fill="#83C5BE"/>
</svg>
