<svg width="16" height="18" viewBox="0 0 16 18" fill="none" xmlns="http://www.w3.org/2000/svg">
<path d="M16 12.6V0.9C16 0.3375 15.6571 0 15.0857 0H3.42857C1.48571 0 0 1.4625 0 3.375V14.625C0 16.5375 1.48571 18 3.42857 18H15.0857C15.5429 18 16 17.6625 16 17.1V16.5375C16 16.3125 15.8857 16.0875 15.6571 15.8625C15.5429 15.3 15.5429 13.725 15.6571 13.275C15.8857 13.1625 16 12.9375 16 12.6ZM5.14286 5.90625C5.14286 5.83166 5.17296 5.76012 5.22654 5.70738C5.28012 5.65463 5.3528 5.625 5.42857 5.625H7.42857V3.65625C7.42857 3.58166 7.45867 3.51012 7.51226 3.45738C7.56584 3.40463 7.63851 3.375 7.71429 3.375H9.42857C9.50435 3.375 9.57702 3.40463 9.6306 3.45738C9.68418 3.51012 9.71429 3.58166 9.71429 3.65625V5.625H11.7143C11.7901 5.625 11.8627 5.65463 11.9163 5.70738C11.9699 5.76012 12 5.83166 12 5.90625V7.59375C12 7.66834 11.9699 7.73988 11.9163 7.79262C11.8627 7.84537 11.7901 7.875 11.7143 7.875H9.71429V9.84375C9.71429 9.91834 9.68418 9.98988 9.6306 10.0426C9.57702 10.0954 9.50435 10.125 9.42857 10.125H7.71429C7.63851 10.125 7.56584 10.0954 7.51226 10.0426C7.45867 9.98988 7.42857 9.91834 7.42857 9.84375V7.875H5.42857C5.3528 7.875 5.28012 7.84537 5.22654 7.79262C5.17296 7.73988 5.14286 7.66834 5.14286 7.59375V5.90625ZM13.6 15.75H3.42857C2.74286 15.75 2.28571 15.3 2.28571 14.625C2.28571 13.95 2.85714 13.5 3.42857 13.5H13.6V15.75Z" fill="#D9D9D9"/>
</svg>
