<svg width="25" height="29" viewBox="0 0 25 29" fill="none" xmlns="http://www.w3.org/2000/svg">
<path d="M4.81928 0.311523L3.44712 2.69609C3.23516 3.06426 3.12361 3.48906 3.12361 3.91953V4.07812C3.12361 5.32988 4.12204 6.34375 5.35475 6.34375C6.58746 6.34375 7.5859 5.32988 7.5859 4.07812V3.91953C7.5859 3.48906 7.47434 3.06992 7.26238 2.69609L5.89023 0.311523C5.77867 0.118945 5.57787 0 5.35475 0C5.13164 0 4.93083 0.118945 4.81928 0.311523ZM11.9589 0.311523L10.5868 2.69609C10.3748 3.06426 10.2633 3.48906 10.2633 3.91953V4.07812C10.2633 5.32988 11.2617 6.34375 12.4944 6.34375C13.7271 6.34375 14.7256 5.32988 14.7256 4.07812V3.91953C14.7256 3.48906 14.614 3.06992 14.4021 2.69609L13.0299 0.311523C12.9183 0.118945 12.7175 0 12.4944 0C12.2713 0 12.0705 0.118945 11.9589 0.311523ZM17.7265 2.69609C17.5145 3.06426 17.4029 3.48906 17.4029 3.91953V4.07812C17.4029 5.32988 18.4014 6.34375 19.6341 6.34375C20.8668 6.34375 21.8652 5.32988 21.8652 4.07812V3.91953C21.8652 3.48906 21.7537 3.06992 21.5417 2.69609L20.1696 0.311523C20.058 0.118945 19.8572 0 19.6341 0C19.411 0 19.2102 0.118945 19.0986 0.311523L17.7265 2.69609ZM7.13967 9.96875C7.13967 8.96621 6.34203 8.15625 5.35475 8.15625C4.36747 8.15625 3.56983 8.96621 3.56983 9.96875V12.6875C1.60085 12.6875 0 14.3131 0 16.3125V20.334C0.462963 20.6285 1.00959 20.8438 1.60643 20.8438C2.35944 20.8438 3.12361 20.4982 3.74833 20.0848C4.04953 19.8865 4.30054 19.6826 4.47345 19.5354C4.55712 19.4617 4.62405 19.3994 4.66867 19.3598C4.69099 19.3371 4.70772 19.3258 4.7133 19.3145L4.71888 19.3088C4.89179 19.1275 5.13164 19.0313 5.38264 19.0369C5.63365 19.0426 5.86234 19.1559 6.02967 19.3428L6.03525 19.3484C6.04083 19.3541 6.05756 19.3711 6.0743 19.3881C6.11334 19.4277 6.16912 19.4844 6.24721 19.558C6.40339 19.7053 6.62651 19.9035 6.9054 20.0961C7.47434 20.4982 8.18831 20.8381 8.93016 20.8381C9.67202 20.8381 10.386 20.4982 10.9549 20.0961C11.2338 19.8979 11.4569 19.7053 11.6131 19.558C11.6912 19.4844 11.747 19.4277 11.786 19.3881C11.8028 19.3711 11.8195 19.3541 11.8251 19.3484L11.8307 19.3428C11.998 19.1445 12.2434 19.0369 12.5 19.0369C12.7566 19.0369 13.002 19.1502 13.1693 19.3428L13.1749 19.3484C13.1805 19.3541 13.1972 19.3711 13.214 19.3881C13.253 19.4277 13.3088 19.4844 13.3869 19.558C13.5431 19.7053 13.7662 19.9035 14.0451 20.0961C14.614 20.4982 15.328 20.8381 16.0698 20.8381C16.8117 20.8381 17.5257 20.4982 18.0946 20.0961C18.3735 19.8979 18.5966 19.7053 18.7528 19.558C18.8309 19.4844 18.8867 19.4277 18.9257 19.3881C18.9424 19.3711 18.9592 19.3541 18.9647 19.3484L18.9703 19.3428C19.1321 19.1502 19.3664 19.0426 19.6174 19.0369C19.8684 19.0313 20.1026 19.1275 20.2811 19.3088L20.2867 19.3145C20.2979 19.3258 20.309 19.3371 20.3313 19.3598C20.3759 19.3994 20.4373 19.4617 20.5265 19.5354C20.6995 19.6826 20.9449 19.8865 21.2517 20.0848C21.8764 20.4982 22.6406 20.8438 23.3936 20.8438C23.9904 20.8438 24.537 20.6229 25 20.334V16.3125C25 14.3131 23.3992 12.6875 21.4302 12.6875V9.96875C21.4302 8.96621 20.6325 8.15625 19.6452 8.15625C18.658 8.15625 17.8603 8.96621 17.8603 9.96875V12.6875H14.2905V9.96875C14.2905 8.96621 13.4929 8.15625 12.5056 8.15625C11.5183 8.15625 10.7207 8.96621 10.7207 9.96875V12.6875H7.15082V9.96875H7.13967ZM24.9888 22.3504C24.5147 22.5373 23.9737 22.6562 23.3824 22.6562C22.1274 22.6562 21.0174 22.0955 20.27 21.6027C20.0413 21.4498 19.8349 21.2969 19.662 21.1609C19.5058 21.2969 19.3217 21.4441 19.1153 21.5857C18.3958 22.0898 17.3249 22.6562 16.0643 22.6562C14.8037 22.6562 13.7327 22.0898 13.0187 21.5857C12.8235 21.4498 12.645 21.3082 12.4944 21.1779C12.3438 21.3082 12.1653 21.4441 11.9701 21.5857C11.2561 22.0898 10.1852 22.6562 8.92459 22.6562C7.66399 22.6562 6.59304 22.0898 5.87907 21.5857C5.67269 21.4385 5.48862 21.2912 5.33244 21.1609C5.15953 21.2969 4.95315 21.4498 4.72445 21.6027C3.97144 22.0955 2.86145 22.6562 1.60643 22.6562C1.01517 22.6562 0.474119 22.5316 0 22.3504V27.1875C0 28.19 0.797635 29 1.78492 29H23.2039C24.1912 29 24.9888 28.19 24.9888 27.1875V22.3504Z" fill="#EAAE81"/>
</svg>
