<svg width="50" height="50" viewBox="0 0 50 50" fill="none" xmlns="http://www.w3.org/2000/svg">
<path d="M17.3193 10.8115L15.9471 13.1961C15.7352 13.5643 15.6236 13.9891 15.6236 14.4195V14.5781C15.6236 15.8299 16.622 16.8438 17.8548 16.8438C19.0875 16.8438 20.0859 15.8299 20.0859 14.5781V14.4195C20.0859 13.9891 19.9743 13.5699 19.7624 13.1961L18.3902 10.8115C18.2787 10.6189 18.0779 10.5 17.8548 10.5C17.6316 10.5 17.4308 10.6189 17.3193 10.8115ZM24.4589 10.8115L23.0868 13.1961C22.8748 13.5643 22.7633 13.9891 22.7633 14.4195V14.5781C22.7633 15.8299 23.7617 16.8438 24.9944 16.8438C26.2271 16.8438 27.2256 15.8299 27.2256 14.5781V14.4195C27.2256 13.9891 27.114 13.5699 26.9021 13.1961L25.5299 10.8115C25.4183 10.6189 25.2175 10.5 24.9944 10.5C24.7713 10.5 24.5705 10.6189 24.4589 10.8115ZM30.2265 13.1961C30.0145 13.5643 29.9029 13.9891 29.9029 14.4195V14.5781C29.9029 15.8299 30.9014 16.8438 32.1341 16.8438C33.3668 16.8438 34.3652 15.8299 34.3652 14.5781V14.4195C34.3652 13.9891 34.2537 13.5699 34.0417 13.1961L32.6696 10.8115C32.558 10.6189 32.3572 10.5 32.1341 10.5C31.911 10.5 31.7102 10.6189 31.5986 10.8115L30.2265 13.1961ZM19.6397 20.4688C19.6397 19.4662 18.842 18.6562 17.8548 18.6562C16.8675 18.6562 16.0698 19.4662 16.0698 20.4688V23.1875C14.1008 23.1875 12.5 24.8131 12.5 26.8125V30.834C12.963 31.1285 13.5096 31.3438 14.1064 31.3438C14.8594 31.3438 15.6236 30.9982 16.2483 30.5848C16.5495 30.3865 16.8005 30.1826 16.9734 30.0354C17.0571 29.9617 17.1241 29.8994 17.1687 29.8598C17.191 29.8371 17.2077 29.8258 17.2133 29.8145L17.2189 29.8088C17.3918 29.6275 17.6316 29.5313 17.8826 29.5369C18.1336 29.5426 18.3623 29.6559 18.5297 29.8428L18.5353 29.8484C18.5408 29.8541 18.5576 29.8711 18.5743 29.8881C18.6133 29.9277 18.6691 29.9844 18.7472 30.058C18.9034 30.2053 19.1265 30.4035 19.4054 30.5961C19.9743 30.9982 20.6883 31.3381 21.4302 31.3381C22.172 31.3381 22.886 30.9982 23.4549 30.5961C23.7338 30.3979 23.9569 30.2053 24.1131 30.058C24.1912 29.9844 24.247 29.9277 24.286 29.8881C24.3028 29.8711 24.3195 29.8541 24.3251 29.8484L24.3307 29.8428C24.498 29.6445 24.7434 29.5369 25 29.5369C25.2566 29.5369 25.502 29.6502 25.6693 29.8428L25.6749 29.8484C25.6805 29.8541 25.6972 29.8711 25.714 29.8881C25.753 29.9277 25.8088 29.9844 25.8869 30.058C26.0431 30.2053 26.2662 30.4035 26.5451 30.5961C27.114 30.9982 27.828 31.3381 28.5698 31.3381C29.3117 31.3381 30.0257 30.9982 30.5946 30.5961C30.8735 30.3979 31.0966 30.2053 31.2528 30.058C31.3309 29.9844 31.3867 29.9277 31.4257 29.8881C31.4424 29.8711 31.4592 29.8541 31.4647 29.8484L31.4703 29.8428C31.6321 29.6502 31.8664 29.5426 32.1174 29.5369C32.3684 29.5313 32.6026 29.6275 32.7811 29.8088L32.7867 29.8145C32.7979 29.8258 32.809 29.8371 32.8313 29.8598C32.8759 29.8994 32.9373 29.9617 33.0265 30.0354C33.1995 30.1826 33.4449 30.3865 33.7517 30.5848C34.3764 30.9982 35.1406 31.3438 35.8936 31.3438C36.4904 31.3438 37.037 31.1229 37.5 30.834V26.8125C37.5 24.8131 35.8992 23.1875 33.9302 23.1875V20.4688C33.9302 19.4662 33.1325 18.6562 32.1452 18.6562C31.158 18.6562 30.3603 19.4662 30.3603 20.4688V23.1875H26.7905V20.4688C26.7905 19.4662 25.9929 18.6562 25.0056 18.6562C24.0183 18.6562 23.2207 19.4662 23.2207 20.4688V23.1875H19.6508V20.4688H19.6397ZM37.4888 32.8504C37.0147 33.0373 36.4737 33.1562 35.8824 33.1562C34.6274 33.1562 33.5174 32.5955 32.77 32.1027C32.5413 31.9498 32.3349 31.7969 32.162 31.6609C32.0058 31.7969 31.8217 31.9441 31.6153 32.0857C30.8958 32.5898 29.8249 33.1562 28.5643 33.1562C27.3037 33.1562 26.2327 32.5898 25.5187 32.0857C25.3235 31.9498 25.145 31.8082 24.9944 31.6779C24.8438 31.8082 24.6653 31.9441 24.4701 32.0857C23.7561 32.5898 22.6852 33.1562 21.4246 33.1562C20.164 33.1562 19.093 32.5898 18.3791 32.0857C18.1727 31.9385 17.9886 31.7912 17.8324 31.6609C17.6595 31.7969 17.4531 31.9498 17.2245 32.1027C16.4714 32.5955 15.3614 33.1562 14.1064 33.1562C13.5152 33.1562 12.9741 33.0316 12.5 32.8504V37.6875C12.5 38.69 13.2976 39.5 14.2849 39.5H35.7039C36.6912 39.5 37.4888 38.69 37.4888 37.6875V32.8504Z" fill="#2B402E"/>
</svg>
