<svg width="18" height="17" viewBox="0 0 18 17" fill="none" xmlns="http://www.w3.org/2000/svg">
<path d="M9.03439 7.97152V0.551363C9.03439 0.252431 9.26689 0 9.56582 0C13.6745 0 17.0059 3.33143 17.0059 7.44008C17.0059 7.73901 16.7535 7.97152 16.4545 7.97152H9.03439ZM0 9.03439C0 5.00545 2.99264 1.6707 6.87543 1.13926C7.18101 1.09608 7.44008 1.34187 7.44008 1.65077V9.56582L12.6382 14.7639C12.8607 14.9865 12.8441 15.3518 12.5884 15.5312C11.2863 16.4612 9.69204 17.0059 7.97152 17.0059C3.57058 17.0059 0 13.4386 0 9.03439ZM17.4842 9.56582C17.7931 9.56582 18.0356 9.82489 17.9957 10.1305C17.7399 11.9872 16.8465 13.6379 15.5411 14.8569C15.3418 15.0429 15.0296 15.0296 14.837 14.8337L9.56582 9.56582H17.4842Z" fill="#D9D9D9"/>
</svg>
