<svg width="24" height="24" viewBox="0 0 24 24" fill="none" xmlns="http://www.w3.org/2000/svg">
<path d="M12.0458 11.2812V1.2457C12.0458 0.841406 12.3559 0.5 12.7544 0.5C18.2326 0.5 22.6745 5.00566 22.6745 10.5625C22.6745 10.9668 22.338 11.2812 21.9394 11.2812H12.0458ZM0 12.7188C0 7.26973 3.99019 2.75957 9.16724 2.04082C9.57468 1.98242 9.92011 2.31484 9.92011 2.73262V13.4375L16.8509 20.4678C17.1476 20.7687 17.1255 21.2629 16.7845 21.5055C15.0485 22.7633 12.9227 23.5 10.6287 23.5C4.76077 23.5 0 18.6754 0 12.7188ZM23.3123 13.4375C23.7241 13.4375 24.0474 13.7879 23.9943 14.2012C23.6533 16.7123 22.462 18.9449 20.7215 20.5936C20.4558 20.8451 20.0395 20.8271 19.7826 20.5621L12.7544 13.4375H23.3123Z" fill="#E09477"/>
</svg>
