<svg width="18" height="11" viewBox="0 0 18 11" fill="none" xmlns="http://www.w3.org/2000/svg">
<path d="M17.5032 2.43911L9.65802 0.0957709C9.23052 -0.0319236 8.76927 -0.0319236 8.34205 0.0957709L0.496549 2.43911C-0.165516 2.63681 -0.165516 3.48801 0.496549 3.68571L1.86427 4.09422C1.56418 4.45488 1.37968 4.89484 1.3614 5.37663C1.09055 5.52757 0.899863 5.79991 0.899863 6.12503C0.899863 6.41979 1.05961 6.6678 1.28968 6.82639L0.571643 9.96762C0.509205 10.2408 0.722956 10.5 1.01068 10.5H2.58878C2.87678 10.5 3.09053 10.2408 3.02809 9.96762L2.31006 6.82639C2.54012 6.6678 2.69987 6.41979 2.69987 6.12503C2.69987 5.80866 2.5179 5.54398 2.25943 5.39031C2.28081 4.97961 2.49681 4.61648 2.84134 4.38625L8.34177 6.02933C8.59658 6.10534 9.08539 6.20022 9.65774 6.02933L17.5032 3.68598C18.1656 3.48801 18.1656 2.63708 17.5032 2.43911ZM9.87241 7.34346C9.07 7.58299 8.38628 7.45065 8.02768 7.34346L3.94898 6.1253L3.59987 8.75001C3.59987 9.71661 6.01751 10.5 8.99989 10.5C11.9823 10.5 14.3999 9.71661 14.3999 8.75001L13.9514 6.12503L9.87241 7.34346Z" fill="#60BAA1"/>
</svg>
