<svg width="50" height="50" viewBox="0 0 50 50" fill="none" xmlns="http://www.w3.org/2000/svg">
<path d="M28.125 28.9062C28.125 29.3379 27.7754 29.6875 27.3438 29.6875H22.6562C22.2246 29.6875 21.875 29.3379 21.875 28.9062V26.5625H12.5V33.5938C12.5 34.8438 13.5937 35.9375 14.8438 35.9375H35.1562C36.4063 35.9375 37.5 34.8438 37.5 33.5938V26.5625H28.125V28.9062ZM35.1562 18.75H31.25V16.4062C31.25 15.1562 30.1563 14.0625 28.9062 14.0625H21.0938C19.8437 14.0625 18.75 15.1562 18.75 16.4062V18.75H14.8438C13.5937 18.75 12.5 19.8437 12.5 21.0938V25H37.5V21.0938C37.5 19.8437 36.4063 18.75 35.1562 18.75ZM28.125 18.75H21.875V17.1875H28.125V18.75Z" fill="#2B402E"/>
</svg>
