<svg width="24" height="19" viewBox="0 0 24 19" fill="none" xmlns="http://www.w3.org/2000/svg">
<path d="M1.45519 0.189462C1.06519 -0.114828 0.498952 -0.0443217 0.191457 0.341607C-0.116037 0.727536 -0.0447884 1.28788 0.345205 1.59217L22.5448 18.8105C22.9348 19.1148 23.501 19.0443 23.8085 18.6584C24.116 18.2725 24.0448 17.7121 23.6548 17.4078L19.7099 14.3501C21.1948 12.8435 22.1998 11.155 22.7061 9.95644C22.8298 9.66328 22.8298 9.33672 22.7061 9.04357C22.1473 7.71879 20.9736 5.78914 19.2186 4.17863C17.4562 2.55328 15.0299 1.18768 12 1.18768C9.44255 1.18768 7.31258 2.16364 5.65136 3.44388L1.45519 0.189462ZM8.36256 5.54794C10.185 3.90403 12.975 3.66282 15.0862 5.11377C17.3662 6.68717 18.0449 9.68554 16.7437 12.0494L15.2999 10.9287C15.6149 10.2125 15.6974 9.39239 15.4799 8.57971C15.0637 7.0397 13.6875 6.00437 12.1575 5.94129C11.94 5.93387 11.8125 6.16765 11.88 6.37546C11.9588 6.61295 12.0038 6.86529 12.0038 7.12876C12.0038 7.50727 11.9138 7.86351 11.7563 8.17894L8.36256 5.54794ZM16.7287 16.6063L3.11641 5.99324C2.70391 6.5276 2.34767 7.05826 2.05142 7.55922L14.7637 17.419C15.4649 17.2149 16.1212 16.9366 16.7362 16.61L16.7287 16.6063ZM1.29394 9.95644C1.85268 11.2812 3.02641 13.2109 4.78138 14.8214C6.54385 16.4467 8.97005 17.8123 12 17.8123C12.1162 17.8123 12.2287 17.8086 12.345 17.8049L1.24144 9.19571C1.17394 9.44805 1.19269 9.71523 1.29394 9.95644Z" fill="#399A8A"/>
</svg>
