<svg width="24" height="19" viewBox="0 0 24 19" fill="none" xmlns="http://www.w3.org/2000/svg">
<path d="M11.9979 0C8.63154 0 5.93594 1.56071 3.97361 3.4183C2.02378 5.25893 0.719729 7.46429 0.103116 8.97835C-0.034372 9.31339 -0.034372 9.68661 0.103116 10.0217C0.719729 11.5357 2.02378 13.7411 3.97361 15.5817C5.93594 17.4393 8.63154 19 11.9979 19C15.3643 19 18.0599 17.4393 20.0222 15.5817C21.9721 13.7368 23.2761 11.5357 23.8969 10.0217C24.0344 9.68661 24.0344 9.31339 23.8969 8.97835C23.2761 7.46429 21.9721 5.25893 20.0222 3.4183C18.0599 1.56071 15.3643 0 11.9979 0ZM5.99844 9.5C5.99844 7.88028 6.63052 6.32691 7.75564 5.1816C8.88077 4.03629 10.4068 3.39286 11.9979 3.39286C13.5891 3.39286 15.1151 4.03629 16.2402 5.1816C17.3653 6.32691 17.9974 7.88028 17.9974 9.5C17.9974 11.1197 17.3653 12.6731 16.2402 13.8184C15.1151 14.9637 13.5891 15.6071 11.9979 15.6071C10.4068 15.6071 8.88077 14.9637 7.75564 13.8184C6.63052 12.6731 5.99844 11.1197 5.99844 9.5ZM11.9979 6.78571C11.9979 8.28281 10.8022 9.5 9.33148 9.5C9.03567 9.5 8.75237 9.44911 8.48572 9.36004C8.25658 9.2837 7.98993 9.4279 7.99826 9.67388C8.01076 9.96652 8.05243 10.2592 8.13159 10.5518C8.70237 12.7232 10.898 14.0125 13.0312 13.4315C15.1643 12.8504 16.4309 10.6154 15.8601 8.44397C15.3976 6.68393 13.8686 5.50067 12.1687 5.42857C11.9271 5.42009 11.7854 5.68728 11.8604 5.92478C11.9479 6.1962 11.9979 6.4846 11.9979 6.78571Z" fill="#399A8A"/>
</svg>
