<svg width="17" height="18" viewBox="0 0 17 18" fill="none" xmlns="http://www.w3.org/2000/svg">
<path d="M16.7829 11.1629L15.2577 10.2702C15.4116 9.42822 15.4116 8.56452 15.2577 7.72258L16.7829 6.82985C16.9583 6.72823 17.0371 6.51775 16.9798 6.32178C16.5824 5.02985 15.9057 3.86131 15.0214 2.88873C14.8853 2.73994 14.6633 2.70365 14.4915 2.80527L12.9663 3.698C12.3254 3.13914 11.5879 2.70728 10.7894 2.42422V0.64237C10.7894 0.439145 10.6498 0.261323 10.4529 0.217775C9.13893 -0.0798044 7.79274 -0.0652883 6.54321 0.217775C6.3463 0.261323 6.20667 0.439145 6.20667 0.64237V2.42785C5.41184 2.71454 4.6743 3.14639 4.02984 3.70163L2.50822 2.80889C2.33278 2.70728 2.11438 2.73994 1.97833 2.89236C1.094 3.86131 0.417324 5.02985 0.0199107 6.32541C-0.0409543 6.52138 0.0413925 6.73186 0.216827 6.83348L1.74203 7.72621C1.58808 8.56815 1.58808 9.43185 1.74203 10.2738L0.216827 11.1665C0.0413925 11.2681 -0.037374 11.4786 0.0199107 11.6746C0.417324 12.9665 1.094 14.1351 1.97833 15.1076C2.11438 15.2564 2.33636 15.2927 2.50822 15.1911L4.03342 14.2984C4.6743 14.8572 5.41184 15.2891 6.21025 15.5722V17.3576C6.21025 17.5609 6.34988 17.7387 6.54679 17.7822C7.86076 18.0798 9.20695 18.0653 10.4565 17.7822C10.6534 17.7387 10.793 17.5609 10.793 17.3576V15.5722C11.5879 15.2855 12.3254 14.8536 12.9698 14.2984L14.4951 15.1911C14.6705 15.2927 14.8889 15.2601 15.0249 15.1076C15.9093 14.1387 16.5859 12.9701 16.9834 11.6746C17.0371 11.475 16.9583 11.2645 16.7829 11.1629ZM8.49806 11.8996C6.91914 11.8996 5.63382 10.5968 5.63382 8.99637C5.63382 7.39597 6.91914 6.09316 8.49806 6.09316C10.077 6.09316 11.3623 7.39597 11.3623 8.99637C11.3623 10.5968 10.077 11.8996 8.49806 11.8996Z" fill="#2B402E"/>
</svg>
