<svg width="24" height="26" viewBox="0 0 24 26" fill="none" xmlns="http://www.w3.org/2000/svg">
<path d="M23.2947 15.9102L21.2147 14.709C21.4246 13.5762 21.4246 12.4141 21.2147 11.2813L23.2947 10.0801C23.534 9.94341 23.6414 9.6602 23.5633 9.39653C23.0213 7.65825 22.0984 6.08598 20.8924 4.77739C20.7068 4.57719 20.4041 4.52837 20.1697 4.66509L18.0897 5.86626C17.2156 5.1143 16.2098 4.53325 15.1209 4.15239V1.75493C15.1209 1.48149 14.9305 1.24223 14.6619 1.18364C12.8699 0.783249 11.034 0.80278 9.32989 1.18364C9.06133 1.24223 8.8709 1.48149 8.8709 1.75493V4.15727C7.78692 4.54301 6.78106 5.12407 5.90215 5.87114L3.82696 4.66997C3.5877 4.53325 3.28985 4.57719 3.1043 4.78227C1.89825 6.08598 0.975396 7.65825 0.433404 9.40141C0.350396 9.66508 0.462701 9.94829 0.701959 10.085L2.78204 11.2862C2.57208 12.419 2.57208 13.5811 2.78204 14.7139L0.701959 15.9151C0.462701 16.0518 0.355279 16.335 0.433404 16.5987C0.975396 18.337 1.89825 19.9092 3.1043 21.2178C3.28985 21.418 3.59258 21.4668 3.82696 21.3301L5.90704 20.129C6.78106 20.8809 7.78692 21.462 8.87579 21.8428V24.2452C8.87579 24.5186 9.06622 24.7579 9.33477 24.8165C11.1268 25.2168 12.9627 25.1973 14.6668 24.8165C14.9354 24.7579 15.1258 24.5186 15.1258 24.2452V21.8428C16.2098 21.4571 17.2156 20.876 18.0945 20.129L20.1746 21.3301C20.4139 21.4668 20.7117 21.4229 20.8973 21.2178C22.1033 19.9141 23.0262 18.3418 23.5682 16.5987C23.6414 16.3301 23.534 16.0469 23.2947 15.9102ZM11.9959 16.9014C9.84258 16.9014 8.08965 15.1485 8.08965 12.9952C8.08965 10.8418 9.84258 9.08891 11.9959 9.08891C14.1492 9.08891 15.9022 10.8418 15.9022 12.9952C15.9022 15.1485 14.1492 16.9014 11.9959 16.9014Z" fill="#2B402E"/>
</svg>
