<svg width="18" height="24" viewBox="0 0 18 24" fill="none" xmlns="http://www.w3.org/2000/svg">
<path d="M12.8636 18C13.3273 16.5047 14.2884 15.2297 15.2398 13.9594C15.4909 13.6266 15.742 13.2937 15.9835 12.9562C16.9398 11.6203 17.5 10.0031 17.5 8.25469C17.5 3.69375 13.6943 0 9 0C4.30568 0 0.5 3.69375 0.5 8.25C0.5 9.99844 1.06023 11.6203 2.01648 12.9516C2.25795 13.2891 2.50909 13.6219 2.76023 13.9547C3.71648 15.225 4.67756 16.5047 5.13636 17.9953H12.8636V18ZM9 24C11.1347 24 12.8636 22.3219 12.8636 20.25V19.5H5.13636V20.25C5.13636 22.3219 6.86534 24 9 24ZM5.13636 8.25C5.13636 8.6625 4.78864 9 4.36364 9C3.93864 9 3.59091 8.6625 3.59091 8.25C3.59091 5.34844 6.01051 3 9 3C9.425 3 9.77273 3.3375 9.77273 3.75C9.77273 4.1625 9.425 4.5 9 4.5C6.86534 4.5 5.13636 6.17812 5.13636 8.25Z" fill="#399A8A"/>
</svg>
