<svg width="24" height="14" viewBox="0 0 24 14" fill="none" xmlns="http://www.w3.org/2000/svg">
<path d="M0 2.33333C0 1.04635 1.07625 0 2.4 0H9.6H11.4H12H21.6C22.9238 0 24 1.04635 24 2.33333V11.6667C24 12.9536 22.9238 14 21.6 14H12H11.4H9.6H2.4C1.07625 14 0 12.9536 0 11.6667V2.33333ZM12 2.33333V11.6667H21.6V2.33333H12ZM6.68625 4.07969C6.56625 3.81719 6.29625 3.64583 6 3.64583C5.70375 3.64583 5.43375 3.81719 5.31375 4.07969L2.91375 9.32969C2.745 9.69792 2.9175 10.1281 3.29625 10.2922C3.675 10.4562 4.1175 10.2885 4.28625 9.92031L4.62 9.1875H7.38L7.71375 9.92031C7.8825 10.2885 8.325 10.4526 8.70375 10.2922C9.0825 10.1318 9.25125 9.69792 9.08625 9.32969L6.68625 4.07969ZM6 6.16875L6.7125 7.72917H5.2875L6 6.16875ZM16.8 3.64583C17.2125 3.64583 17.55 3.97396 17.55 4.375V4.52083H19.2H19.8C20.2125 4.52083 20.55 4.84896 20.55 5.25C20.55 5.65104 20.2125 5.97917 19.8 5.97917H19.725L19.665 6.14323C19.3313 7.03281 18.825 7.84219 18.18 8.5276C18.2138 8.54948 18.2475 8.56771 18.2812 8.58594L18.99 8.99792C19.3463 9.20573 19.4587 9.65417 19.2488 9.99687C19.0387 10.3396 18.5737 10.4526 18.2213 10.2484L17.5125 9.83646C17.3438 9.73802 17.1825 9.63594 17.0212 9.52656C16.6238 9.8 16.2 10.037 15.7463 10.2339L15.6112 10.2922C15.2325 10.4562 14.79 10.2885 14.6213 9.92031C14.4525 9.55208 14.625 9.12187 15.0038 8.95781L15.1388 8.89948C15.3788 8.79375 15.6113 8.67708 15.8325 8.54219L15.375 8.0974C15.0825 7.81302 15.0825 7.35 15.375 7.06562C15.6675 6.78125 16.1437 6.78125 16.4363 7.06562L16.9838 7.59792L17.0025 7.61615C17.4675 7.13854 17.8463 6.58437 18.12 5.97552L16.8 5.97917H14.1C13.6875 5.97917 13.35 5.65104 13.35 5.25C13.35 4.84896 13.6875 4.52083 14.1 4.52083H16.05V4.375C16.05 3.97396 16.3875 3.64583 16.8 3.64583Z" fill="#399A8A"/>
</svg>
