<svg width="24" height="14" viewBox="0 0 24 14" fill="none" xmlns="http://www.w3.org/2000/svg">
<path d="M23.3377 3.25215L12.8774 0.127694C12.3074 -0.0425648 11.6924 -0.0425648 11.1227 0.127694L0.662065 3.25215C-0.220688 3.51575 -0.220688 4.65069 0.662065 4.91428L2.4857 5.45896C2.08557 5.93984 1.83957 6.52646 1.81519 7.16885C1.45407 7.3701 1.19982 7.73322 1.19982 8.1667C1.19982 8.55972 1.41282 8.8904 1.71957 9.10185L0.76219 13.2902C0.67894 13.6544 0.963941 14 1.34757 14H3.4517C3.8357 14 4.1207 13.6544 4.03745 13.2902L3.08007 9.10185C3.38683 8.8904 3.59983 8.55972 3.59983 8.1667C3.59983 7.74488 3.3572 7.39197 3.01257 7.18708C3.04107 6.63948 3.32908 6.15531 3.78845 5.84833L11.1224 8.0391C11.4621 8.14045 12.1139 8.26696 12.877 8.0391L23.3377 4.91464C24.2208 4.65069 24.2208 3.51611 23.3377 3.25215ZM13.1632 9.79128C12.0933 10.1107 11.1817 9.93419 10.7036 9.79128L5.2653 8.16707L4.79983 11.6667C4.79983 12.9555 8.02334 14 11.9999 14C15.9764 14 19.1999 12.9555 19.1999 11.6667L18.6019 8.16671L13.1632 9.79128Z" fill="#006D77"/>
</svg>
