<svg width="26" height="20" viewBox="0 0 26 20" fill="none" xmlns="http://www.w3.org/2000/svg">
<path d="M25.0264 6.81641C25.2168 6.66504 25.5 6.80664 25.5 7.0459V17.0312C25.5 18.3252 24.4502 19.375 23.1562 19.375H2.84375C1.5498 19.375 0.5 18.3252 0.5 17.0312V7.05078C0.5 6.80664 0.77832 6.66992 0.973633 6.82129C2.06738 7.6709 3.51758 8.75 8.49805 12.3682C9.52832 13.1201 11.2666 14.7021 13 14.6924C14.7432 14.707 16.5156 13.0908 17.5068 12.3682C22.4873 8.75 23.9326 7.66602 25.0264 6.81641ZM13 13.125C14.1328 13.1445 15.7637 11.6992 16.584 11.1035C23.0635 6.40137 23.5566 5.99121 25.0508 4.81934C25.334 4.59961 25.5 4.25781 25.5 3.89648V2.96875C25.5 1.6748 24.4502 0.625 23.1562 0.625H2.84375C1.5498 0.625 0.5 1.6748 0.5 2.96875V3.89648C0.5 4.25781 0.666016 4.59473 0.949219 4.81934C2.44336 5.98633 2.93652 6.40137 9.41602 11.1035C10.2363 11.6992 11.8672 13.1445 13 13.125Z" fill="#A0A0A0"/>
</svg>
