<svg width="16" height="18" viewBox="0 0 16 18" fill="none" xmlns="http://www.w3.org/2000/svg">
<path d="M15.5 12.6562V0.84375C15.5 0.376172 15.1417 0 14.6964 0H3.71429C1.93973 0 0.5 1.51172 0.5 3.375V14.625C0.5 16.4883 1.93973 18 3.71429 18H14.6964C15.1417 18 15.5 17.6238 15.5 17.1562V16.5938C15.5 16.3301 15.3828 16.091 15.202 15.9363C15.0614 15.3949 15.0614 13.8516 15.202 13.3102C15.3828 13.159 15.5 12.9199 15.5 12.6562ZM4.78571 4.71094C4.78571 4.59492 4.87612 4.5 4.98661 4.5H12.0848C12.1953 4.5 12.2857 4.59492 12.2857 4.71094V5.41406C12.2857 5.53008 12.1953 5.625 12.0848 5.625H4.98661C4.87612 5.625 4.78571 5.53008 4.78571 5.41406V4.71094ZM4.78571 6.96094C4.78571 6.84492 4.87612 6.75 4.98661 6.75H12.0848C12.1953 6.75 12.2857 6.84492 12.2857 6.96094V7.66406C12.2857 7.78008 12.1953 7.875 12.0848 7.875H4.98661C4.87612 7.875 4.78571 7.78008 4.78571 7.66406V6.96094ZM13.2701 15.75H3.71429C3.12165 15.75 2.64286 15.2473 2.64286 14.625C2.64286 14.0062 3.125 13.5 3.71429 13.5H13.2701C13.2065 14.1012 13.2065 15.1488 13.2701 15.75Z" fill="#399A8A"/>
</svg>
