<svg width="18" height="24" viewBox="0 0 18 24" fill="none" xmlns="http://www.w3.org/2000/svg">
<path d="M8.14661 0.256624C8.66207 -0.0855412 9.33684 -0.0855412 9.8523 0.256624L10.6864 0.805025C10.9676 0.987825 11.2956 1.07688 11.6283 1.05813L12.6264 0.997199C13.2449 0.959702 13.826 1.29718 14.1025 1.85027L14.5523 2.74552C14.7023 3.0455 14.9459 3.28455 15.2411 3.43454L16.1455 3.88919C16.6985 4.16574 17.0359 4.74695 16.9984 5.36566L16.9375 6.36403C16.9187 6.69682 17.0077 7.02961 17.1905 7.30615L17.7434 8.14047C18.0855 8.65606 18.0855 9.33102 17.7434 9.84661L17.1905 10.6856C17.0077 10.9668 16.9187 11.295 16.9375 11.6277L16.9984 12.6261C17.0359 13.2448 16.6985 13.826 16.1455 14.1026L15.2505 14.5525C14.9506 14.7025 14.7116 14.9463 14.5617 15.2416L14.1071 16.1462C13.8307 16.6993 13.2496 17.0368 12.6311 16.9993L11.633 16.9383C11.3003 16.9196 10.9676 17.0086 10.6911 17.1914L9.85698 17.7445C9.34153 18.0867 8.66675 18.0867 8.1513 17.7445L7.31251 17.1914C7.03135 17.0086 6.70334 16.9196 6.37063 16.9383L5.37253 16.9993C4.75398 17.0368 4.17292 16.6993 3.89645 16.1462L3.4466 15.2509C3.29665 14.951 3.05298 14.7119 2.75776 14.5619L1.85338 14.1073C1.30043 13.8307 0.963044 13.2495 1.00053 12.6308L1.06145 11.6324C1.08019 11.2996 0.99116 10.9668 0.808408 10.6903L0.260151 9.8513C-0.0819234 9.33571 -0.0819234 8.66075 0.260151 8.14516L0.808408 7.31084C0.99116 7.02961 1.08019 6.70151 1.06145 6.36872L1.00053 5.37035C0.963044 4.75164 1.30043 4.17043 1.85338 3.89388L2.74839 3.44391C3.04829 3.28923 3.29196 3.0455 3.44191 2.74552L3.89177 1.85027C4.16824 1.29718 4.74929 0.959702 5.36784 0.997199L6.36595 1.05813C6.69865 1.07688 7.03135 0.987825 7.30782 0.805025L8.14661 0.256624ZM12.7482 8.99823C12.7482 8.00373 12.3533 7.04997 11.6502 6.34676C10.9472 5.64354 9.99369 5.24848 8.99945 5.24848C8.00522 5.24848 7.05171 5.64354 6.34868 6.34676C5.64565 7.04997 5.25069 8.00373 5.25069 8.99823C5.25069 9.99273 5.64565 10.9465 6.34868 11.6497C7.05171 12.3529 8.00522 12.748 8.99945 12.748C9.99369 12.748 10.9472 12.3529 11.6502 11.6497C12.3533 10.9465 12.7482 9.99273 12.7482 8.99823ZM0.0633412 20.7068L2.08299 15.9025C2.09236 15.9071 2.09704 15.9118 2.10173 15.9212L2.55158 16.8165C3.09984 17.9039 4.23853 18.5648 5.45687 18.4945L6.45498 18.4335C6.46435 18.4335 6.47841 18.4335 6.48778 18.4429L7.32188 18.996C7.56087 19.1507 7.81391 19.2725 8.07632 19.3569L6.3144 23.5426C6.20663 23.8004 5.96764 23.9738 5.69117 23.9972C5.4147 24.0207 5.1476 23.8941 4.99765 23.6598L3.48877 21.349L0.859953 21.738C0.592854 21.7755 0.325755 21.6677 0.15706 21.4568C-0.0116341 21.2459 -0.0444358 20.9552 0.0586552 20.7068H0.0633412ZM11.6845 23.5379L9.92259 19.3569C10.185 19.2725 10.438 19.1554 10.677 18.996L11.5111 18.4429C11.5205 18.4382 11.5299 18.4335 11.5439 18.4335L12.542 18.4945C13.7604 18.5648 14.8991 17.9039 15.4473 16.8165L15.8972 15.9212C15.9019 15.9118 15.9065 15.9071 15.9159 15.9025L17.9403 20.7068C18.0433 20.9552 18.0059 21.2412 17.8418 21.4568C17.6778 21.6724 17.4061 21.7802 17.139 21.738L14.5101 21.349L13.0013 23.6551C12.8513 23.8894 12.5842 24.016 12.3077 23.9925C12.0313 23.9691 11.7923 23.791 11.6845 23.5379Z" fill="#83C5BE"/>
</svg>
