<svg width="14" height="18" viewBox="0 0 14 18" fill="none" xmlns="http://www.w3.org/2000/svg">
<path d="M6.36157 0.192468C6.74826 -0.0641559 7.25448 -0.0641559 7.64117 0.192468L8.26691 0.603768C8.47783 0.740869 8.72391 0.807661 8.9735 0.7936L9.72228 0.747899C10.1863 0.719776 10.6222 0.972884 10.8296 1.3877L11.1671 2.05914C11.2796 2.28413 11.4624 2.46341 11.6839 2.5759L12.3623 2.9169C12.7772 3.1243 13.0303 3.56021 13.0021 4.02424L12.9564 4.77302C12.9424 5.02262 13.0092 5.27221 13.1463 5.47962L13.5611 6.10536C13.8177 6.49205 13.8177 6.99827 13.5611 7.38496L13.1463 8.01421C13.0092 8.22514 12.9424 8.47121 12.9564 8.72081L13.0021 9.46958C13.0303 9.93362 12.7772 10.3695 12.3623 10.5769L11.6909 10.9144C11.4659 11.0269 11.2866 11.2097 11.1741 11.4312L10.8331 12.1096C10.6257 12.5245 10.1898 12.7776 9.7258 12.7494L8.97702 12.7037C8.72743 12.6897 8.47783 12.7565 8.27043 12.8936L7.64469 13.3084C7.25799 13.565 6.75178 13.565 6.36508 13.3084L5.73583 12.8936C5.5249 12.7565 5.27883 12.6897 5.02923 12.7037L4.28046 12.7494C3.81642 12.7776 3.38052 12.5245 3.17311 12.1096L2.83563 11.4382C2.72314 11.2132 2.54034 11.0339 2.31887 10.9214L1.6404 10.5804C1.22558 10.373 0.972473 9.93713 1.0006 9.4731L1.0463 8.72432C1.06036 8.47473 0.993566 8.22514 0.856466 8.01773L0.445165 7.38847C0.188541 7.00178 0.188541 6.49556 0.445165 6.10887L0.856466 5.48313C0.993566 5.27221 1.06036 5.02613 1.0463 4.77654L1.0006 4.02776C0.972473 3.56373 1.22558 3.12782 1.6404 2.92041L2.31184 2.58293C2.53682 2.46693 2.71962 2.28413 2.83212 2.05914L3.16959 1.3877C3.377 0.972884 3.81291 0.719776 4.27694 0.747899L5.02572 0.7936C5.27531 0.807661 5.5249 0.740869 5.73231 0.603768L6.36157 0.192468ZM9.81368 6.74867C9.81368 6.0028 9.51739 5.28748 8.98997 4.76007C8.46256 4.23266 7.74724 3.93636 7.00137 3.93636C6.2555 3.93636 5.54017 4.23266 5.01276 4.76007C4.48535 5.28748 4.18906 6.0028 4.18906 6.74867C4.18906 7.49454 4.48535 8.20987 5.01276 8.73728C5.54017 9.26469 6.2555 9.56099 7.00137 9.56099C7.74724 9.56099 8.46256 9.26469 8.98997 8.73728C9.51739 8.20987 9.81368 7.49454 9.81368 6.74867ZM0.297518 15.5301L1.81265 11.9268C1.81968 11.9304 1.8232 11.9339 1.82671 11.9409L2.16419 12.6123C2.57549 13.4279 3.42973 13.9236 4.34373 13.8709L5.09251 13.8252C5.09954 13.8252 5.11009 13.8252 5.11712 13.8322L5.74286 14.247C5.92214 14.363 6.11198 14.4544 6.30884 14.5177L4.98705 17.6569C4.9062 17.8503 4.72691 17.9803 4.5195 17.9979C4.3121 18.0155 4.11172 17.9206 3.99923 17.7448L2.86727 16.0117L0.895135 16.3035C0.694758 16.3316 0.49438 16.2508 0.367826 16.0926C0.241272 15.9344 0.216664 15.7164 0.294003 15.5301H0.297518ZM9.01569 17.6534L7.6939 14.5177C7.89076 14.4544 8.08059 14.3665 8.25988 14.247L8.88562 13.8322C8.89265 13.8287 8.89968 13.8252 8.91023 13.8252L9.65901 13.8709C10.573 13.9236 11.4272 13.4279 11.8385 12.6123L12.176 11.9409C12.1795 11.9339 12.1831 11.9304 12.1901 11.9268L13.7087 15.5301C13.7861 15.7164 13.758 15.9309 13.6349 16.0926C13.5119 16.2543 13.308 16.3351 13.1076 16.3035L11.1355 16.0117L10.0035 17.7413C9.89102 17.9171 9.69064 18.012 9.48324 17.9944C9.27583 17.9768 9.09654 17.8432 9.01569 17.6534Z" fill="#D9D9D9"/>
</svg>
