<svg width="18" height="14" viewBox="0 0 18 14" fill="none" xmlns="http://www.w3.org/2000/svg">
<path d="M6.5 1.5C6.5 0.671875 7.17188 0 8 0H10C10.8281 0 11.5 0.671875 11.5 1.5V3.5C11.5 4.32812 10.8281 5 10 5H9.75V6.25H14.5C15.4656 6.25 16.25 7.03438 16.25 8V9H16.5C17.3281 9 18 9.67188 18 10.5V12.5C18 13.3281 17.3281 14 16.5 14H14.5C13.6719 14 13 13.3281 13 12.5V10.5C13 9.67188 13.6719 9 14.5 9H14.75V8C14.75 7.8625 14.6375 7.75 14.5 7.75H9.75V9H10C10.8281 9 11.5 9.67188 11.5 10.5V12.5C11.5 13.3281 10.8281 14 10 14H8C7.17188 14 6.5 13.3281 6.5 12.5V10.5C6.5 9.67188 7.17188 9 8 9H8.25V7.75H3.5C3.3625 7.75 3.25 7.8625 3.25 8V9H3.5C4.32812 9 5 9.67188 5 10.5V12.5C5 13.3281 4.32812 14 3.5 14H1.5C0.671875 14 0 13.3281 0 12.5V10.5C0 9.67188 0.671875 9 1.5 9H1.75V8C1.75 7.03438 2.53438 6.25 3.5 6.25H8.25V5H8C7.17188 5 6.5 4.32812 6.5 3.5V1.5Z" fill="#60BAA1"/>
</svg>
