<svg width="24" height="20" viewBox="0 0 24 20" fill="none" xmlns="http://www.w3.org/2000/svg">
<path d="M8.66667 2.53571C8.66667 1.41183 9.5625 0.5 10.6667 0.5H13.3333C14.4375 0.5 15.3333 1.41183 15.3333 2.53571V5.25C15.3333 6.37388 14.4375 7.28571 13.3333 7.28571H13V8.98214H19.3333C20.6208 8.98214 21.6667 10.0467 21.6667 11.3571V12.7143H22C23.1042 12.7143 24 13.6261 24 14.75V17.4643C24 18.5882 23.1042 19.5 22 19.5H19.3333C18.2292 19.5 17.3333 18.5882 17.3333 17.4643V14.75C17.3333 13.6261 18.2292 12.7143 19.3333 12.7143H19.6667V11.3571C19.6667 11.1705 19.5167 11.0179 19.3333 11.0179H13V12.7143H13.3333C14.4375 12.7143 15.3333 13.6261 15.3333 14.75V17.4643C15.3333 18.5882 14.4375 19.5 13.3333 19.5H10.6667C9.5625 19.5 8.66667 18.5882 8.66667 17.4643V14.75C8.66667 13.6261 9.5625 12.7143 10.6667 12.7143H11V11.0179H4.66667C4.48333 11.0179 4.33333 11.1705 4.33333 11.3571V12.7143H4.66667C5.77083 12.7143 6.66667 13.6261 6.66667 14.75V17.4643C6.66667 18.5882 5.77083 19.5 4.66667 19.5H2C0.895833 19.5 0 18.5882 0 17.4643V14.75C0 13.6261 0.895833 12.7143 2 12.7143H2.33333V11.3571C2.33333 10.0467 3.37917 8.98214 4.66667 8.98214H11V7.28571H10.6667C9.5625 7.28571 8.66667 6.37388 8.66667 5.25V2.53571Z" fill="#006D77"/>
</svg>
