<svg width="14" height="18" viewBox="0 0 14 18" fill="none" xmlns="http://www.w3.org/2000/svg">
<path d="M5.3125 0C4.57775 0 3.95268 0.469575 3.72102 1.125H1.9375C1.00552 1.125 0.25 1.88052 0.25 2.8125V16.3125C0.25 17.2445 1.00552 18 1.9375 18H12.0625C12.9945 18 13.75 17.2445 13.75 16.3125V2.8125C13.75 1.88052 12.9945 1.125 12.0625 1.125H10.2789C10.0473 0.469575 9.42224 0 8.6875 0H5.3125ZM4.75 1.6875C4.75 1.37684 5.00184 1.125 5.3125 1.125H8.6875C8.99811 1.125 9.25 1.37684 9.25 1.6875C9.25 1.99816 8.99811 2.25 8.6875 2.25H5.3125C5.00184 2.25 4.75 1.99816 4.75 1.6875ZM10.2103 8.83524L6.27274 12.7728C6.05308 12.9924 5.69692 12.9924 5.47726 12.7728L3.78976 11.0853C3.57008 10.8656 3.57008 10.5094 3.78976 10.2897C4.00942 10.0701 4.36558 10.0701 4.58524 10.2897L5.875 11.5795L9.4147 8.03976C9.63441 7.82008 9.99059 7.82008 10.2103 8.03976C10.4299 8.25942 10.4299 8.61558 10.2103 8.83524Z" fill="#D9D9D9"/>
</svg>
