<svg width="18" height="24" viewBox="0 0 18 24" fill="none" xmlns="http://www.w3.org/2000/svg">
<path d="M6.75 0C5.77033 0 4.93691 0.6261 4.62803 1.5H2.25C1.00736 1.5 0 2.50736 0 3.75V21.75C0 22.9926 1.00736 24 2.25 24H15.75C16.9926 24 18 22.9926 18 21.75V3.75C18 2.50736 16.9926 1.5 15.75 1.5H13.3719C13.0631 0.6261 12.2297 0 11.25 0H6.75ZM6 2.25C6 1.83579 6.33579 1.5 6.75 1.5H11.25C11.6642 1.5 12 1.83579 12 2.25C12 2.66421 11.6642 3 11.25 3H6.75C6.33579 3 6 2.66421 6 2.25ZM13.2804 11.7803L8.03032 17.0304C7.73743 17.3232 7.26257 17.3232 6.96968 17.0304L4.71968 14.7804C4.42677 14.4874 4.42677 14.0126 4.71968 13.7196C5.01257 13.4268 5.48743 13.4268 5.78032 13.7196L7.5 15.4394L12.2196 10.7197C12.5126 10.4268 12.9874 10.4268 13.2804 10.7197C13.5732 11.0126 13.5732 11.4874 13.2804 11.7803Z" fill="#2B402E"/>
</svg>
