<svg width="14" height="18" viewBox="0 0 14 18" fill="none" xmlns="http://www.w3.org/2000/svg">
<path d="M2.5 0C1.25898 0 0.25 1.00898 0.25 2.25V15.75C0.25 16.991 1.25898 18 2.5 18H11.5C12.741 18 13.75 16.991 13.75 15.75V5.625H9.25C8.62773 5.625 8.125 5.12227 8.125 4.5V0H2.5ZM9.25 0V4.5H13.75L9.25 0ZM3.625 1.6875C3.625 1.37812 3.87812 1.125 4.1875 1.125H5.3125C5.62188 1.125 5.875 1.37812 5.875 1.6875C5.875 1.99688 5.62188 2.25 5.3125 2.25H4.1875C3.87812 2.25 3.625 1.99688 3.625 1.6875ZM3.625 3.9375C3.625 3.62812 3.87812 3.375 4.1875 3.375H5.3125C5.62188 3.375 5.875 3.62812 5.875 3.9375C5.875 4.24688 5.62188 4.5 5.3125 4.5H4.1875C3.87812 4.5 3.625 4.24688 3.625 3.9375ZM3.625 6.1875C3.625 5.87812 3.87812 5.625 4.1875 5.625H5.3125C5.62188 5.625 5.875 5.87812 5.875 6.1875C5.875 6.49688 5.62188 6.75 5.3125 6.75H4.1875C3.87812 6.75 3.625 6.49688 3.625 6.1875ZM3.40352 8.71172C3.53359 8.21953 3.98008 7.875 4.48984 7.875H5.01016C5.51992 7.875 5.96641 8.21602 6.09648 8.71172L6.92266 11.8125C6.97188 12.0023 6.99648 12.1957 6.99648 12.3891C6.99648 13.6266 5.98398 14.6285 4.74648 14.6285C3.50898 14.6285 2.49648 13.6266 2.49648 12.3891C2.49648 12.1957 2.52109 11.9988 2.57031 11.8125L3.39648 8.71172H3.40352ZM4.1875 11.8125C3.87812 11.8125 3.625 12.0656 3.625 12.375C3.625 12.6844 3.87812 12.9375 4.1875 12.9375H5.3125C5.62188 12.9375 5.875 12.6844 5.875 12.375C5.875 12.0656 5.62188 11.8125 5.3125 11.8125H4.1875Z" fill="#D9D9D9"/>
</svg>
