<svg width="26" height="21" viewBox="0 0 26 21" fill="none" xmlns="http://www.w3.org/2000/svg">
<path d="M23.9714 0.781654C21.5929 0.916637 16.8655 1.40796 13.947 3.19441C13.7457 3.31768 13.6315 3.53686 13.6315 3.76603V19.559C13.6315 20.0603 14.1797 20.3771 14.6419 20.1445C17.6445 18.6332 21.987 18.2209 24.1341 18.108C24.8672 18.0694 25.4371 17.4817 25.4371 16.7773V2.11412C25.4375 1.34546 24.7708 0.736515 23.9714 0.781654ZM11.9275 3.19441C9.00955 1.40796 4.28212 0.917071 1.90365 0.781654C1.10417 0.736515 0.4375 1.34546 0.4375 2.11412V16.7777C0.4375 17.4826 1.00738 18.0703 1.74045 18.1085C3.88845 18.2213 8.23307 18.6341 11.2357 20.1462C11.6966 20.3784 12.2431 20.062 12.2431 19.562V3.75822C12.2431 3.52862 12.1293 3.31811 11.9275 3.19441Z" fill="#60BAA1"/>
</svg>
