<svg width="22" height="25" viewBox="0 0 22 25" fill="none" xmlns="http://www.w3.org/2000/svg">
<path d="M15.625 21.877V23.8301C15.625 24.4773 15.1003 25.002 14.4531 25.002H1.17188C0.524658 25.002 0 24.4773 0 23.8301V5.86133C0 5.21411 0.524658 4.68945 1.17188 4.68945H4.6875V19.1426C4.6875 20.6503 5.91411 21.877 7.42188 21.877H15.625ZM15.625 5.08008V0.00195312H7.42188C6.77466 0.00195312 6.25 0.526611 6.25 1.17383V19.1426C6.25 19.7898 6.77466 20.3145 7.42188 20.3145H20.7031C21.3503 20.3145 21.875 19.7898 21.875 19.1426V6.25195H16.7969C16.1523 6.25195 15.625 5.72461 15.625 5.08008ZM21.5318 3.56499L18.312 0.345166C18.0922 0.125411 17.7941 0.00195475 17.4833 0.00195313L17.1875 0.00195312V4.68945H21.875V4.3936C21.875 4.08282 21.7515 3.78476 21.5318 3.56499Z" fill="#60BAA1"/>
</svg>
