<svg width="25" height="27" viewBox="0 0 25 27" fill="none" xmlns="http://www.w3.org/2000/svg">
<path fill-rule="evenodd" clip-rule="evenodd" d="M17.4407 6.93037H16.7885V7.39736H17.4407V6.93037ZM12.4982 4.29287C12.7253 4.29287 12.9093 4.47707 12.9093 4.70422C12.9093 4.93128 12.7253 5.11536 12.4982 5.11536C12.2709 5.11536 12.0868 4.93128 12.0868 4.70422C12.0868 4.47707 12.2709 4.29287 12.4982 4.29287ZM20.8317 23.1636C20.7361 23.2447 20.6395 23.3243 20.5417 23.4027V23.2207H19.9273V23.8655C19.879 23.8996 19.8301 23.9333 19.7813 23.9667V23.659H16.6603V24.2061H19.4205C19.3067 24.2787 19.1916 24.349 19.0755 24.418H18.6627V24.6541C17.3314 25.3805 15.8578 25.8786 14.2946 26.0967H10.7013C9.13841 25.8787 7.66473 25.3806 6.33347 24.6541V24.418H5.92061C5.80461 24.349 5.68937 24.2787 5.57574 24.2061H8.33568V23.659H5.21475V23.9667C5.1661 23.9333 5.11712 23.8996 5.0689 23.8655V23.2207H4.45434V23.4027C4.3566 23.3243 4.25983 23.2447 4.16446 23.1636V22.7983H3.84375V20.809H6.08741V4.36494H10.4195L10.3925 4.16291C10.3925 4.16291 11.3672 3.70237 12.4148 3.68765C12.4184 2.75206 12.4302 1.83548 12.4283 0.904297C12.8796 1.29718 13.6197 1.46977 14.3502 1.38503C14.3495 1.77534 14.0419 2.16586 14.0412 2.55627C13.3822 2.2622 12.8955 2.14223 12.6257 2.13707V3.69034C13.6588 3.72986 14.6185 4.13961 14.6035 4.25141L14.5883 4.36494H18.9086V20.809H21.1522V22.7983H20.8315L20.8317 23.1636ZM9.90291 6.08479H10.3309V6.45254H9.90291V6.08479ZM10.852 6.08479H11.2799V6.45254H10.852V6.08479ZM11.8398 6.08479H12.2677V6.45254H11.8398V6.08479ZM12.7285 6.08479H13.1564V6.45254H12.7285V6.08479ZM13.7163 6.08479H14.1442V6.45254H13.7163V6.08479ZM14.6652 6.08479H15.0932V6.45254H14.6652V6.08479ZM14.6652 7.07483H15.0932V7.44258H14.6652V7.07483ZM13.7163 7.07483H14.1442V7.44258H13.7163V7.07483ZM12.7285 7.07483H13.1564V7.44258H12.7285V7.07483ZM11.8398 7.07483H12.2677V7.44258H11.8398V7.07483ZM10.852 7.07483H11.2799V7.44258H10.852V7.07483ZM9.90291 7.07483H10.3309V7.44258H9.90291V7.07483ZM9.90291 8.0943H10.3309V8.46205H9.90291V8.0943ZM9.90291 9.13579H10.3309V9.50354H9.90291V9.13579ZM9.90291 10.1672H10.3309V10.5349H9.90291V10.1672ZM9.90291 11.2086H10.3309V11.5763H9.90291V11.2086ZM9.90291 12.2909H10.3309V12.6586H9.90291V12.2909ZM9.90291 13.3324H10.3309V13.7001H9.90291V13.3324ZM9.90291 14.4118H10.3309V14.7795H9.90291V14.4118ZM9.90291 15.5186H10.3309V15.8863H9.90291V15.5186ZM9.90291 16.6038H10.3309V16.9715H9.90291V16.6038ZM9.90291 17.7104H10.3309V18.0782H9.90291V17.7104ZM9.90291 18.7862H10.3309V19.1539H9.90291V18.7862ZM9.90291 19.893H10.3309V20.2607H9.90291V19.893ZM8.84338 19.893H9.27138V20.2607H8.84338V19.893ZM8.84338 18.7862H9.27138V19.1539H8.84338V18.7862ZM8.84338 17.7104H9.27138V18.0782H8.84338V17.7104ZM8.84338 16.6038H9.27138V16.9715H8.84338V16.6038ZM8.84338 15.5186H9.27138V15.8863H8.84338V15.5186ZM7.85215 16.6038H8.28015V16.9715H7.85215V16.6038ZM7.85215 17.7104H8.28015V18.0782H7.85215V17.7104ZM7.85215 18.7862H8.28015V19.1539H7.85215V18.7862ZM7.85215 19.893H8.28015V20.2607H7.85215V19.893ZM6.84739 18.7862H7.27539V19.1539H6.84739V18.7862ZM6.84739 19.893H7.27539V20.2607H6.84739V19.893ZM6.84739 20.9059H7.27539V21.2737H6.84739V20.9059ZM7.85215 20.9059H8.28015V21.2737H7.85215V20.9059ZM15.093 15.5186H14.665V15.8863H15.093V15.5186ZM15.093 16.6038H14.665V16.9715H15.093V16.6038ZM15.093 17.7104H14.665V18.0782H15.093V17.7104ZM15.093 18.7862H14.665V19.1539H15.093V18.7862ZM15.093 19.893H14.665V20.2607H15.093V19.893ZM16.1525 15.5186H15.7245V15.8863H16.1525V15.5186ZM16.1525 16.6038H15.7245V16.9715H16.1525V16.6038ZM16.1525 17.7104H15.7245V18.0782H16.1525V17.7104ZM16.1525 18.7862H15.7245V19.1539H16.1525V18.7862ZM16.1525 19.893H15.7245V20.2607H16.1525V19.893ZM17.1437 16.6038H16.7157V16.9715H17.1437V16.6038ZM17.1437 17.7104H16.7157V18.0782H17.1437V17.7104ZM17.1437 18.7862H16.7157V19.1539H17.1437V18.7862ZM17.1437 19.893H16.7157V20.2607H17.1437V19.893ZM18.1485 18.7862H17.7205V19.1539H18.1485V18.7862ZM18.1485 19.893H17.7205V20.2607H18.1485V19.893ZM17.1437 20.9059H16.7157V21.2737H17.1437V20.9059ZM18.1485 20.9059H17.7205V21.2737H18.1485V20.9059ZM14.6651 14.4118H15.0931V14.7795H14.6651V14.4118ZM14.6651 13.3324H15.0931V13.7001H14.6651V13.3324ZM14.6651 12.2909H15.0931V12.6586H14.6651V12.2909ZM14.6651 11.2086H15.0931V11.5763H14.6651V11.2086ZM14.6651 10.1672H15.0931V10.5349H14.6651V10.1672ZM14.6651 9.13579H15.0931V9.50354H14.6651V9.13579ZM14.6651 8.0943H15.0931V8.46205H14.6651V8.0943ZM15.7255 4.61766H18.6114V18.1392H17.5229V16.1287H16.66V15.0203H15.7972H15.7253L15.7255 4.61766ZM9.27084 4.61766H6.38491V18.1392H7.47345V16.1287H8.33632V15.0203H9.1992H9.27095L9.27084 4.61766ZM10.3585 4.74804H10.5531L10.6299 5.63111L14.3658 5.63498L14.443 4.74804H14.6377L14.5439 5.82487C13.1884 5.82487 11.8134 5.82637 10.452 5.82487L10.3585 4.74804ZM12.2514 23.5117V24.023H12.935V23.5117H12.2514ZM13.2628 23.0641H13.1059V24.0123H13.2628V23.0641ZM12.1547 23.0641H11.9978V24.0123H12.1547V23.0641ZM13.427 23.5087V24.0198H16.0887V23.5087H13.427ZM16.4364 23.064H16.2323V24.2003H16.4364V23.064ZM17.4295 21.9303H17.2321V22.5676H17.4295V21.9303ZM17.0436 21.9303H16.8464V22.5676H17.0436V21.9303ZM18.4151 21.9303H18.2069V22.5676H18.4151V21.9303ZM18.0081 21.9303H17.8001V22.5676H18.0081V21.9303ZM19.4495 21.9303H19.2413V22.5676H19.4495V21.9303ZM19.0426 21.9303H18.8345V22.5676H19.0426V21.9303ZM12.4324 21.876L12.3573 22.4593L13.1269 22.4623L12.4324 21.876ZM13.7252 22.4054H13.5741L13.6216 22.4528H13.727L13.7252 22.4054ZM14.3197 22.4054H13.8636L13.8664 22.4528H14.3224L14.3197 22.4054ZM14.7801 22.4054H14.4515L14.4534 22.4528H14.782L14.7801 22.4054ZM15.4225 22.4054H14.9243L14.9272 22.4528H15.4255L15.4225 22.4054ZM15.8229 22.4054H15.5656L15.5648 22.4528H15.8219L15.8229 22.4054ZM16.2805 22.4054H15.9598L15.9617 22.4528H16.2823L16.2805 22.4054ZM16.6573 22.4054H16.4134L16.421 22.4528H16.6647L16.6573 22.4054ZM13.3217 22.1263H13.2394L13.3225 22.1957L13.3217 22.1263ZM13.6834 22.1276H13.4661L13.4697 22.2852H13.6869L13.6834 22.1276ZM14.2838 22.1276H13.826L13.8337 22.2852H14.2915L14.2838 22.1276ZM14.7462 22.1276H14.4235L14.4289 22.2852H14.7514L14.7462 22.1276ZM15.3826 22.1276H14.8803L14.8887 22.2852H15.3909L15.3826 22.1276ZM15.7823 22.1276H15.5102L15.5147 22.2852H15.7867L15.7823 22.1276ZM16.2503 22.1276H15.9184L15.9238 22.2852H16.2558L16.2503 22.1276ZM16.6351 22.1276H16.3846L16.3968 22.2852H16.6471L16.6351 22.1276ZM13.3249 21.9417H13.0232L13.0794 21.9892H13.3267L13.3249 21.9417ZM13.6871 21.9417H13.3855L13.3873 21.9892H13.689L13.6871 21.9417ZM14.2815 21.9417H13.8255L13.8282 21.9892H14.2843L14.2815 21.9417ZM14.7419 21.9417H14.4133L14.4152 21.9892H14.7439L14.7419 21.9417ZM15.3843 21.9417H14.8862L14.8891 21.9892H15.3872L15.3843 21.9417ZM15.7847 21.9417H15.5275L15.5267 21.9892H15.7838L15.7847 21.9417ZM16.2424 21.9417H15.9218L15.9236 21.9892H16.2442L16.2424 21.9417ZM16.6191 21.9417H16.3752L16.3829 21.9892H16.6266L16.6191 21.9417ZM13.3023 21.6614H12.8364L12.848 21.8038H13.3138L13.3023 21.6614ZM13.675 21.6638H13.4478L13.459 21.806H13.6862L13.675 21.6638ZM14.2793 21.6635H13.8134L13.825 21.8057H14.2907L14.2793 21.6635ZM14.7328 21.6635H14.4045L14.4207 21.8057H14.7492L14.7328 21.6635ZM15.3559 21.6635H14.8715L14.8895 21.8057H15.3739L15.3559 21.6635ZM15.7678 21.6635H15.5066L15.5349 21.8057H15.7962L15.7678 21.6635ZM16.193 21.6635H15.8964L15.9157 21.8057H16.2121L16.193 21.6635ZM16.5866 21.6635H16.3253L16.342 21.8057H16.6033L16.5866 21.6635ZM12.6977 21.2904H12.5596H12.4363H12.2982L12.2852 21.5127H12.4493H12.5466H12.7108L12.6977 21.2904ZM13.2969 21.2904H12.831L12.8425 21.5127H13.3083L13.2969 21.2904ZM13.6858 21.2904H13.4244L13.4374 21.5127H13.6988L13.6858 21.2904ZM14.259 21.2904H13.7933L13.8047 21.5127H14.2705L14.259 21.2904ZM14.7173 21.2904H14.4102L14.4253 21.5127H14.7324L14.7173 21.2904ZM15.3266 21.2904H14.8608L14.8892 21.5127H15.355L15.3266 21.2904ZM15.7109 21.2904H15.4495L15.478 21.5127H15.7392L15.7109 21.2904ZM16.1302 21.2904H15.8688L15.8973 21.5127H16.1586L16.1302 21.2904ZM16.5199 21.2904H16.2586L16.3068 21.5127H16.5681L16.5199 21.2904ZM12.7037 21.0193H12.5533H12.4422H12.2919L12.2789 21.1616H12.4552H12.5402H12.7164L12.7037 21.0193ZM13.3022 21.0165H12.8363L12.8479 21.1588H13.3137L13.3022 21.0165ZM13.6749 21.019H13.4476L13.4589 21.1613H13.6861L13.6749 21.019ZM14.2792 21.0187H13.8132L13.8249 21.161H14.2906L14.2792 21.0187ZM14.6907 21.0187H14.4044L14.4186 21.161H14.705L14.6907 21.0187ZM15.2955 21.0187H14.8297L14.8582 21.161H15.3241L15.2955 21.0187ZM15.6752 21.0187H15.414L15.4425 21.161H15.7037L15.6752 21.0187ZM16.0725 21.0187H15.8112L15.8396 21.161H16.1009L16.0725 21.0187ZM16.4941 21.0187H16.2327L16.2494 21.161H16.5107L16.4941 21.0187ZM12.6977 20.6625H12.5596H12.4363H12.2982L12.2852 20.8846H12.4493H12.5466H12.7108L12.6977 20.6625ZM13.2969 20.6625H12.831L12.8425 20.8846H13.3083L13.2969 20.6625ZM13.6858 20.6625H13.4244L13.4374 20.8846H13.6988L13.6858 20.6625ZM14.259 20.6625H13.7933L13.8047 20.8846H14.2705L14.259 20.6625ZM14.6594 20.6625H14.3981L14.4111 20.8846H14.6724L14.6594 20.6625ZM15.2692 20.6625H14.8035L14.832 20.8846H15.2977L15.2692 20.6625ZM15.6271 20.6625H15.3659L15.3943 20.8846H15.6555L15.6271 20.6625ZM16.0244 20.6625H15.763L15.7915 20.8846H16.0528L16.0244 20.6625ZM16.4142 20.6625H16.1528L16.201 20.8846H16.4624L16.4142 20.6625ZM13.2746 10.1162H12.678V20.3396H13.2746V10.1162ZM14.2419 10.1162H13.6453V20.3396H14.2419V10.1162ZM13.2746 7.9869H12.678V9.61502H13.2746V7.9869ZM14.2419 7.9869H13.6453V9.61502H14.2419V7.9869ZM11.6252 23.5115V24.0227H11.1232V23.5115H11.6252ZM11.7332 23.0637H11.8901V24.0121H11.7332V23.0637ZM10.8329 23.0637H10.9898V24.0121H10.8329V23.0637ZM10.5521 23.5085V24.0196H8.90728V23.5085H10.5521ZM8.55972 23.0637H8.76368V24.2001H8.55972V23.0637ZM7.56656 21.9301H7.76397V22.5674H7.56656V21.9301ZM7.95236 21.9301H8.14966V22.5674H7.95236V21.9301ZM6.58092 21.9301H6.78907V22.5674H6.58092V21.9301ZM6.98787 21.9301H7.19602V22.5674H6.98787V21.9301ZM5.54652 21.9301H5.75467V22.5674H5.54652V21.9301ZM5.95347 21.9301H6.16162V22.5674H5.95347V21.9301ZM8.33138 22.5965H11.9323H12.1635H16.6644V22.9281H12.1635H11.9323H8.33138V22.5965ZM12.275 21.8758L12.2149 22.4591L11.5803 22.4621L12.275 21.8758ZM11.2707 22.4051H11.4218L11.3743 22.4526H11.269L11.2707 22.4051ZM10.6762 22.4051H11.1322L11.1296 22.4526H10.6735L10.6762 22.4051ZM10.2159 22.4051H10.5444L10.5425 22.4526H10.2138L10.2159 22.4051ZM9.5734 22.4051H10.0716L10.0687 22.4526H9.5705L9.5734 22.4051ZM9.173 22.4051H9.43033L9.43109 22.4526H9.17396L9.173 22.4051ZM8.71535 22.4051H9.03616L9.03423 22.4526H8.71352L8.71535 22.4051ZM8.33869 22.4051H8.58249L8.57487 22.4526H8.33117L8.33869 22.4051ZM11.6742 22.1261H11.7565L11.6735 22.1955L11.6742 22.1261ZM11.3126 22.1274H11.5299L11.5263 22.285H11.3089L11.3126 22.1274ZM10.7122 22.1274H11.1698L11.1622 22.285H10.7045L10.7122 22.1274ZM10.2498 22.1274H10.5724L10.567 22.285H10.2446L10.2498 22.1274ZM9.61335 22.1274H10.1156L10.1072 22.285H9.60497L9.61335 22.1274ZM9.2137 22.1274H9.48565L9.48124 22.285H9.20919L9.2137 22.1274ZM8.74564 22.1274H9.07762L9.07214 22.285H8.74016L8.74564 22.1274ZM8.36092 22.1274H8.61128L8.59903 22.285H8.34889L8.36092 22.1274ZM11.6711 21.9415H11.9728L11.9165 21.989H11.6693L11.6711 21.9415ZM11.3088 21.9415H11.6105L11.6087 21.989H11.307L11.3088 21.9415ZM10.7143 21.9415H11.1705L11.1677 21.989H10.7117L10.7143 21.9415ZM10.254 21.9415H10.5826L10.5807 21.989H10.2521L10.254 21.9415ZM9.61152 21.9415H10.1097L10.1069 21.989H9.60862L9.61152 21.9415ZM9.21112 21.9415H9.46846L9.46932 21.989H9.21209L9.21112 21.9415ZM8.75348 21.9415H9.07418L9.07236 21.989H8.75176L8.75348 21.9415ZM8.37682 21.9415H8.62062L8.6131 21.989H8.3693L8.37682 21.9415ZM11.6936 21.6612H12.1595L12.148 21.8036H11.6822L11.6936 21.6612ZM11.321 21.6636H11.5482L11.5368 21.8058H11.3097L11.321 21.6636ZM10.7167 21.6633H11.1825L11.171 21.8055H10.7053L10.7167 21.6633ZM10.2631 21.6633H10.5915L10.5751 21.8055H10.2468L10.2631 21.6633ZM9.64009 21.6633H10.1245L10.1063 21.8055H9.62194L9.64009 21.6633ZM9.22809 21.6633H9.4893L9.46084 21.8055H9.19963L9.22809 21.6633ZM8.80299 21.6633H9.09942L9.0802 21.8055H8.78377L8.80299 21.6633ZM8.40936 21.6633H8.67056L8.65402 21.8055H8.39271L8.40936 21.6633ZM11.6991 21.2902H12.1648L12.1534 21.5125H11.6875L11.6991 21.2902ZM11.3102 21.2902H11.5714L11.5584 21.5125H11.2971L11.3102 21.2902ZM10.737 21.2902H11.2027L11.1913 21.5125H10.7254L10.737 21.2902ZM10.2787 21.2902H10.5857L10.5705 21.5125H10.2635L10.2787 21.2902ZM9.66941 21.2902H10.1351L10.1067 21.5125H9.64095L9.66941 21.2902ZM9.28513 21.2902H9.54633L9.51787 21.5125H9.25666L9.28513 21.2902ZM8.86582 21.2902H9.12714L9.09867 21.5125H8.83736L8.86582 21.2902ZM8.47595 21.2902H8.73737L8.68904 21.5125H8.42772L8.47595 21.2902ZM11.6938 21.0163H12.1596L12.1481 21.1586H11.6823L11.6938 21.0163ZM11.3211 21.0188H11.5483L11.5369 21.1611H11.3098L11.3211 21.0188ZM10.7168 21.0185H11.1826L11.1711 21.1608H10.7054L10.7168 21.0185ZM10.3052 21.0185H10.5916L10.5774 21.1608H10.2909L10.3052 21.0185ZM9.70035 21.0185H10.1662L10.1377 21.1608H9.67188L9.70035 21.0185ZM9.32068 21.0185H9.58188L9.55342 21.1608H9.29221L9.32068 21.0185ZM8.92339 21.0185H9.1847L9.15624 21.1608H8.89493L8.92339 21.0185ZM8.50183 21.0185H8.76314L8.7466 21.1608H8.48529L8.50183 21.0185ZM11.6991 20.6623H12.1648L12.1534 20.8844H11.6875L11.6991 20.6623ZM11.3102 20.6623H11.5714L11.5584 20.8844H11.2971L11.3102 20.6623ZM10.737 20.6623H11.2027L11.1913 20.8844H10.7254L10.737 20.6623ZM10.3366 20.6623H10.5979L10.5849 20.8844H10.3236L10.3366 20.6623ZM9.72666 20.6623H10.1925L10.1639 20.8844H9.6982L9.72666 20.6623ZM9.3689 20.6623H9.6301L9.60164 20.8844H9.34044L9.3689 20.6623ZM8.97162 20.6623H9.23293L9.20446 20.8844H8.94315L8.97162 20.6623ZM8.58174 20.6623H8.84316L8.79483 20.8844H8.53352L8.58174 20.6623ZM11.7212 10.116H12.3179V20.3393H11.7212V10.116ZM10.754 10.116H11.3507V20.3393H10.754V10.116ZM11.7212 7.98668H12.3179V9.61481H11.7212V7.98668ZM10.754 7.98668H11.3507V9.61481H10.754V7.98668ZM6.58286 14.1767H7.30181V14.6436H6.58286V14.1767ZM8.46907 14.1767H9.10147V14.6436H8.46907V14.1767ZM6.58286 13.1278H7.30181V13.5947H6.58286V13.1278ZM8.46907 13.1278H9.10147V13.5947H8.46907V13.1278ZM7.55561 14.1767H8.20776V14.6436H7.55561V14.1767ZM7.55561 13.1278H8.20776V13.5947H7.55561V13.1278ZM6.58286 17.3704H7.30181V17.8374H6.58286V17.3704ZM6.58286 16.2876H7.30181V16.7545H6.58286V16.2876ZM6.58286 15.2387H7.30181V15.7056H6.58286V15.2387ZM7.55561 15.2387H8.20776V15.7056H7.55561V15.2387ZM6.58286 4.87435H7.30181V5.34134H6.58286V4.87435ZM8.46907 4.87435H9.10147V5.34134H8.46907V4.87435ZM7.55561 4.87435H8.20776V5.34134H7.55561V4.87435ZM6.58286 5.9022H7.30181V6.36919H6.58286V5.9022ZM8.46907 5.9022H9.10147V6.36919H8.46907V5.9022ZM6.58286 12.0789H7.30181V12.5458H6.58286V12.0789ZM8.46907 12.0789H9.10147V12.5458H8.46907V12.0789ZM6.58286 11.0508H7.30181V11.5178H6.58286V11.0508ZM8.46907 11.0508H9.10147V11.5178H8.46907V11.0508ZM6.58286 10.0021H7.30181V10.4691H6.58286V10.0021ZM8.46907 10.0021H9.10147V10.4691H8.46907V10.0021ZM6.58286 8.98006H7.30181V9.44705H6.58286V8.98006ZM8.46907 8.98006H9.10147V9.44705H8.46907V8.98006ZM6.58286 7.9521H7.30181V8.41909H6.58286V7.9521ZM8.46907 7.9521H9.10147V8.41909H8.46907V7.9521ZM6.58286 6.93005H7.30181V7.39704H6.58286V6.93005ZM8.46907 6.93005H9.10147V7.39704H8.46907V6.93005ZM7.55561 5.90231H8.20776V6.3693H7.55561V5.90231ZM7.55561 12.079H8.20776V12.546H7.55561V12.079ZM7.55561 11.0509H8.20776V11.5179H7.55561V11.0509ZM7.55561 10.0022H8.20776V10.4692H7.55561V10.0022ZM7.55561 8.98016H8.20776V9.44715H7.55561V8.98016ZM7.55561 7.95221H8.20776V8.4192H7.55561V7.95221ZM7.55561 6.93016H8.20776V7.39715H7.55561V6.93016ZM18.4135 14.1768H17.6946V14.6438H18.4135V14.1768ZM16.5273 14.1768H15.8949V14.6438H16.5273V14.1768ZM18.4135 13.1279H17.6946V13.5949H18.4135V13.1279ZM16.5273 13.1279H15.8949V13.5949H16.5273V13.1279ZM17.4408 14.1768H16.7886V14.6438H17.4408V14.1768ZM17.4408 13.1279H16.7886V13.5949H17.4408V13.1279ZM18.4135 17.3705H17.6946V17.8375H18.4135V17.3705ZM18.4135 16.2877H17.6946V16.7547H18.4135V16.2877ZM18.4135 15.2388H17.6946V15.7058H18.4135V15.2388ZM17.4408 15.2388H16.7886V15.7058H17.4408V15.2388ZM18.4135 4.87446H17.6946V5.34145H18.4135V4.87446ZM16.5273 4.87446H15.8949V5.34145H16.5273V4.87446ZM17.4408 4.87446H16.7886V5.34145H17.4408V4.87446ZM18.4135 5.90231H17.6946V6.3693H18.4135V5.90231ZM16.5273 5.90231H15.8949V6.3693H16.5273V5.90231ZM18.4135 12.079H17.6946V12.546H18.4135V12.079ZM16.5273 12.079H15.8949V12.546H16.5273V12.079ZM18.4135 11.0509H17.6946V11.5179H18.4135V11.0509ZM16.5273 11.0509H15.8949V11.5179H16.5273V11.0509ZM18.4135 10.0022H17.6946V10.4692H18.4135V10.0022ZM16.5273 10.0022H15.8949V10.4692H16.5273V10.0022ZM18.4135 8.98016H17.6946V9.44715H18.4135V8.98016ZM16.5273 8.98016H15.8949V9.44715H16.5273V8.98016ZM18.4135 7.95221H17.6946V8.4192H18.4135V7.95221ZM16.5273 7.95221H15.8949V8.4192H16.5273V7.95221ZM18.4135 6.93016H17.6946V7.39715H18.4135V6.93016ZM16.5273 6.93016H15.8949V7.39715H16.5273V6.93016ZM17.4408 5.90241H16.7886V6.36941H17.4408V5.90241ZM17.4408 12.0791H16.7886V12.5461H17.4408V12.0791ZM17.4408 11.051H16.7886V11.518H17.4408V11.051ZM17.4408 10.0023H16.7886V10.4693H17.4408V10.0023ZM17.4408 8.98027H16.7886V9.44726H17.4408V8.98027ZM17.4408 7.95231H16.7886V8.4193H17.4408V7.95231Z" fill="#399A8A"/>
</svg>
